<svg width="44" height="88" viewBox="0 0 44 88" fill="none" xmlns="http://www.w3.org/2000/svg">
<ellipse cx="14.0677" cy="11.7309" rx="10" ry="4" transform="rotate(49.7487 14.0677 11.7309)" fill="#8EC63F"/>
<ellipse rx="10" ry="4" transform="matrix(0.646141 -0.763218 -0.763218 -0.646141 29.5143 12.2167)" fill="#8EC63F"/>
<ellipse cx="22" cy="10" rx="10" ry="4" transform="rotate(-90 22 10)" fill="#8EC63F"/>
<path d="M42 20.5C35.8461 12.5 11 12 3 20.5C-5 29 11.5 88 24 88C36.5 88 48.1539 28.5 42 20.5Z" fill="#FC751B"/>
<path d="M25.5 39.5C25.5 39.5 30.6293 38 34 38C37.3707 38 42.5 39.5 42.5 39.5" stroke="#B05213"/>
<path d="M29 50C29 50 32.6206 49 35 49C37.3794 49 41 50 41 50" stroke="#B05213"/>
</svg>
