<svg width="1440" height="1024" viewBox="0 0 1440 1024" fill="none" xmlns="http://www.w3.org/2000/svg">
<g clip-path="url(#clip0_351_2)">
<rect width="1440" height="1024" fill="#88BBB8"/>
<rect x="1217" y="145" width="150" height="236" fill="#012231"/>
<path fill-rule="evenodd" clip-rule="evenodd" d="M1367 138H1206V388H1367V138ZM1355 151H1218V373H1355V151Z" fill="#E2E2E2"/>
<rect x="1366" y="240" width="14" height="160" transform="rotate(90 1366 240)" fill="#E2E2E2"/>
<path d="M1339.48 163.697C1339.53 161.834 1337.28 160.871 1336.03 162.226L1332.55 166.03C1331.99 166.641 1331.11 166.829 1330.34 166.501L1325.53 164.449C1323.69 163.662 1322.02 165.796 1323.18 167.455L1325.73 171.101C1326.27 171.885 1326.21 172.943 1325.57 173.636L1322.64 176.838C1321.35 178.241 1322.58 180.526 1324.45 180.212L1330.06 179.273C1330.81 179.146 1331.58 179.473 1332.02 180.112L1335.34 184.86C1336.45 186.446 1338.88 185.726 1338.94 183.797L1339.06 179.392C1339.08 178.439 1339.76 177.645 1340.69 177.49L1344.99 176.768C1346.95 176.44 1347.23 173.711 1345.38 172.924L1340.58 170.872C1339.81 170.544 1339.32 169.77 1339.34 168.93L1339.48 163.697Z" fill="#FFC164"/>
<path d="M1330.7 203.795C1330.76 201.932 1328.5 200.969 1327.26 202.324L1327.01 202.596C1326.47 203.184 1325.62 203.365 1324.88 203.049L1324.45 202.867C1322.8 202.161 1321.3 204.075 1322.34 205.563V205.563C1322.83 206.266 1322.77 207.224 1322.2 207.846V207.846C1321 209.155 1322.11 211.324 1323.86 211.031L1324.69 210.892C1325.44 210.766 1326.2 211.093 1326.65 211.731L1327.14 212.431C1328.17 213.912 1330.45 213.192 1330.5 211.391V211.391C1330.52 210.536 1331.13 209.811 1331.96 209.672V209.672C1333.72 209.377 1333.97 206.929 1332.32 206.223L1331.89 206.041C1331.15 205.725 1330.67 204.979 1330.69 204.169L1330.7 203.795Z" fill="#FFC164"/>
<path d="M1303.11 177.783C1303.17 175.92 1300.91 174.958 1299.67 176.312L1299.42 176.584C1298.88 177.173 1298.03 177.354 1297.29 177.038L1296.87 176.856C1295.21 176.15 1293.71 178.063 1294.75 179.551V179.551C1295.24 180.254 1295.18 181.212 1294.61 181.834V181.834C1293.41 183.143 1294.52 185.312 1296.27 185.019L1297.1 184.881C1297.85 184.754 1298.61 185.081 1299.06 185.72L1299.55 186.42C1300.58 187.9 1302.86 187.18 1302.91 185.379V185.379C1302.93 184.524 1303.54 183.799 1304.37 183.66V183.66C1306.13 183.366 1306.38 180.918 1304.73 180.212L1304.3 180.03C1303.56 179.714 1303.08 178.967 1303.1 178.157L1303.11 177.783Z" fill="#FFC164"/>
<rect x="-36" y="692" width="1492" height="346" fill="#281F1F"/>
<path d="M1173.95 578.596C1172.94 573.638 1176.73 569 1181.79 569H1278.1C1282.86 569 1286.56 573.121 1286.06 577.848L1274.54 685.848C1274.11 689.915 1270.67 693 1266.58 693H1203.78C1199.98 693 1196.7 690.323 1195.94 686.596L1173.95 578.596Z" fill="#112E3C"/>
<path fill-rule="evenodd" clip-rule="evenodd" d="M652.239 379.667H692.152C691.896 378.106 691.427 376.579 690.752 375.122C689.708 372.87 688.195 370.831 686.299 369.121C684.402 367.412 682.159 366.065 679.698 365.158C677.236 364.251 674.605 363.801 671.954 363.835C669.302 363.868 666.683 364.384 664.245 365.353C661.808 366.322 659.6 367.725 657.747 369.482C655.894 371.239 654.433 373.316 653.447 375.593C652.878 376.908 652.473 378.275 652.239 379.667ZM698.518 379.667H712.428C717.202 379.667 720.913 383.821 720.378 388.565L715.184 434.565C714.727 438.61 711.305 441.667 707.234 441.667H641.535C637.679 441.667 634.372 438.917 633.669 435.126L625.137 389.126C624.224 384.207 628 379.667 633.002 379.667H645.874C646.147 377.534 646.723 375.438 647.59 373.435C648.884 370.446 650.802 367.721 653.234 365.415C655.665 363.109 658.564 361.267 661.763 359.995C664.962 358.724 668.4 358.046 671.88 358.002C675.36 357.958 678.813 358.548 682.044 359.739C685.274 360.929 688.218 362.697 690.707 364.941C693.197 367.184 695.183 369.86 696.552 372.816C697.565 375.003 698.226 377.311 698.518 379.667Z" fill="#A06442"/>
<circle cx="1064.5" cy="137.5" r="57.5" fill="#4E4F73"/>
<circle cx="1064.5" cy="137.5" r="46.5" fill="#E2E2E2"/>
<path d="M1057.02 101.256C1056.97 101.131 1057.02 101.041 1057.16 100.986C1057.46 100.873 1057.75 100.691 1058.02 100.441C1058.29 100.191 1058.5 99.9688 1058.65 99.7734C1058.77 99.6328 1058.88 99.5625 1058.98 99.5625H1059.48C1059.66 99.5625 1059.75 99.6504 1059.75 99.8262V107.736C1059.75 107.912 1059.66 108 1059.49 108H1058.98C1058.81 108 1058.72 107.912 1058.72 107.736V101.314C1058.72 101.197 1058.72 101.08 1058.73 100.963H1058.72C1058.6 101.115 1058.42 101.271 1058.19 101.432C1057.95 101.592 1057.74 101.709 1057.54 101.783C1057.37 101.85 1057.26 101.818 1057.2 101.689L1057.02 101.256ZM1061.73 108C1061.52 108 1061.41 107.912 1061.41 107.736V107.455C1061.41 107.303 1061.47 107.162 1061.6 107.033L1063.9 104.719C1064.58 104.035 1065.02 103.508 1065.23 103.137C1065.45 102.762 1065.56 102.33 1065.56 101.842C1065.56 101.432 1065.44 101.084 1065.19 100.799C1064.96 100.514 1064.59 100.371 1064.1 100.371C1063.67 100.371 1063.3 100.482 1063.01 100.705C1062.72 100.928 1062.52 101.301 1062.39 101.824C1062.33 102.047 1062.22 102.133 1062.04 102.082L1061.58 101.947C1061.46 101.912 1061.43 101.746 1061.5 101.449C1061.61 100.938 1061.88 100.484 1062.32 100.09C1062.75 99.6914 1063.33 99.4922 1064.06 99.4922C1064.97 99.4922 1065.64 99.7227 1066.07 100.184C1066.49 100.645 1066.71 101.209 1066.71 101.877C1066.71 102.529 1066.53 103.092 1066.18 103.564C1065.83 104.037 1065.35 104.568 1064.74 105.158L1062.81 107.027V107.051C1062.92 107.043 1063.08 107.039 1063.28 107.039H1066.48C1066.69 107.039 1066.8 107.127 1066.8 107.303V107.736C1066.8 107.912 1066.69 108 1066.48 108H1061.73Z" fill="black"/>
<path d="M1093.78 137.133C1093.62 136.953 1093.59 136.807 1093.69 136.693L1093.99 136.324C1094.12 136.164 1094.28 136.199 1094.46 136.43C1094.67 136.684 1094.92 136.893 1095.21 137.057C1095.52 137.217 1095.83 137.297 1096.16 137.297C1096.8 137.297 1097.26 137.137 1097.53 136.816C1097.8 136.496 1097.93 136.068 1097.93 135.533C1097.93 134.967 1097.75 134.557 1097.39 134.303C1097.04 134.049 1096.63 133.922 1096.19 133.922H1095.67C1095.5 133.922 1095.41 133.857 1095.41 133.729V133.295C1095.41 133.158 1095.5 133.09 1095.67 133.09H1096.09C1096.52 133.09 1096.88 132.949 1097.19 132.668C1097.5 132.387 1097.65 132.004 1097.65 131.52C1097.65 131.184 1097.53 130.908 1097.28 130.693C1097.04 130.479 1096.69 130.371 1096.25 130.371C1095.83 130.371 1095.49 130.467 1095.22 130.658C1094.96 130.85 1094.77 131.016 1094.66 131.156C1094.51 131.344 1094.37 131.373 1094.24 131.244L1093.89 130.91C1093.79 130.812 1093.83 130.65 1094.03 130.424C1094.23 130.186 1094.52 129.971 1094.9 129.779C1095.28 129.588 1095.74 129.492 1096.26 129.492C1097.07 129.492 1097.69 129.688 1098.12 130.078C1098.54 130.469 1098.75 130.975 1098.75 131.596C1098.75 132.088 1098.6 132.5 1098.3 132.832C1098 133.16 1097.67 133.363 1097.31 133.441V133.465C1097.72 133.523 1098.12 133.75 1098.51 134.145C1098.89 134.539 1099.08 135.01 1099.08 135.557C1099.08 136.369 1098.85 137.01 1098.37 137.479C1097.9 137.943 1097.16 138.176 1096.13 138.176C1095.54 138.176 1095.05 138.061 1094.66 137.83C1094.28 137.596 1093.98 137.363 1093.78 137.133Z" fill="black"/>
<path d="M1060.54 174.068C1060.54 172.35 1060.84 171.158 1061.44 170.494C1062.03 169.826 1062.76 169.492 1063.62 169.492C1064.1 169.492 1064.49 169.555 1064.79 169.68C1065.08 169.805 1065.33 169.965 1065.54 170.16C1065.71 170.312 1065.74 170.439 1065.65 170.541L1065.38 170.863C1065.27 170.988 1065.13 170.977 1064.95 170.828C1064.81 170.703 1064.63 170.596 1064.43 170.506C1064.23 170.416 1063.94 170.371 1063.56 170.371C1063.04 170.371 1062.58 170.635 1062.19 171.162C1061.79 171.689 1061.6 172.518 1061.6 173.646H1061.61C1061.79 173.393 1062.04 173.178 1062.37 173.002C1062.7 172.822 1063.12 172.732 1063.62 172.732C1064.25 172.732 1064.79 172.947 1065.27 173.377C1065.74 173.803 1065.98 174.445 1065.98 175.305C1065.98 176.156 1065.75 176.848 1065.3 177.379C1064.85 177.91 1064.18 178.176 1063.3 178.176C1062.38 178.176 1061.69 177.811 1061.22 177.08C1060.77 176.346 1060.54 175.342 1060.54 174.068ZM1061.8 175.381C1061.8 175.865 1061.93 176.307 1062.2 176.705C1062.47 177.1 1062.84 177.297 1063.31 177.297C1063.8 177.297 1064.17 177.113 1064.44 176.746C1064.7 176.379 1064.83 175.91 1064.83 175.34C1064.83 174.773 1064.7 174.348 1064.43 174.062C1064.16 173.773 1063.83 173.629 1063.43 173.629C1062.92 173.629 1062.52 173.787 1062.23 174.104C1061.94 174.42 1061.8 174.846 1061.8 175.381Z" fill="black"/>
<path d="M1025.53 132.363C1025.53 131.512 1025.75 130.82 1026.2 130.289C1026.65 129.758 1027.32 129.492 1028.21 129.492C1029.13 129.492 1029.82 129.859 1030.27 130.594C1030.73 131.324 1030.96 132.326 1030.96 133.6C1030.96 135.318 1030.67 136.512 1030.07 137.18C1029.47 137.844 1028.74 138.176 1027.89 138.176C1027.4 138.176 1027.01 138.113 1026.72 137.988C1026.42 137.863 1026.17 137.703 1025.96 137.508C1025.8 137.355 1025.76 137.229 1025.85 137.127L1026.12 136.805C1026.23 136.68 1026.38 136.691 1026.55 136.84C1026.7 136.965 1026.87 137.072 1027.07 137.162C1027.28 137.252 1027.57 137.297 1027.94 137.297C1028.47 137.297 1028.93 137.033 1029.32 136.506C1029.71 135.979 1029.9 135.15 1029.9 134.021H1029.89C1029.72 134.275 1029.46 134.492 1029.13 134.672C1028.8 134.848 1028.39 134.936 1027.88 134.936C1027.26 134.936 1026.71 134.723 1026.24 134.297C1025.76 133.867 1025.53 133.223 1025.53 132.363ZM1026.68 132.328C1026.68 132.895 1026.81 133.322 1027.07 133.611C1027.34 133.896 1027.67 134.039 1028.07 134.039C1028.59 134.039 1028.99 133.881 1029.27 133.564C1029.56 133.248 1029.71 132.822 1029.71 132.287C1029.71 131.803 1029.57 131.363 1029.3 130.969C1029.04 130.57 1028.67 130.371 1028.19 130.371C1027.71 130.371 1027.33 130.555 1027.07 130.922C1026.81 131.289 1026.68 131.758 1026.68 132.328Z" fill="black"/>
<path d="M1062.29 165.707C1062.68 166.098 1063.32 166.098 1063.71 165.707L1070.07 159.343C1070.46 158.953 1070.46 158.319 1070.07 157.929C1069.68 157.538 1069.05 157.538 1068.66 157.929L1063 163.586L1057.34 157.929C1056.95 157.538 1056.32 157.538 1055.93 157.929C1055.54 158.319 1055.54 158.953 1055.93 159.343L1062.29 165.707ZM1062 134L1062 165L1064 165L1064 134L1062 134Z" fill="#4E4F73"/>
<path d="M1030.8 112.02C1030.26 112.128 1029.91 112.655 1030.02 113.196L1031.78 122.021C1031.89 122.563 1032.42 122.914 1032.96 122.806C1033.5 122.698 1033.85 122.171 1033.75 121.629L1032.18 113.785L1040.02 112.216C1040.56 112.107 1040.91 111.58 1040.81 111.039C1040.7 110.497 1040.17 110.146 1039.63 110.254L1030.8 112.02ZM1064.55 134.168L1031.55 112.168L1030.44 113.832L1063.45 135.832L1064.55 134.168Z" fill="#4E4F73"/>
<circle cx="1062.5" cy="134.5" r="2.5" fill="#4E4F73"/>
<ellipse rx="41.697" ry="38.0722" transform="matrix(-0.999965 -0.00835764 0.00799789 -0.999968 975 401.419)" fill="#D9D9D9"/>
<ellipse rx="34.5757" ry="30.0843" transform="matrix(-0.999965 -0.00835764 0.00799789 -0.999968 975.104 400.822)" fill="#CDC7C7"/>
<rect x="738" y="429" width="180" height="11" fill="#112E3B"/>
<path d="M933.29 385H1015.39C1019.14 385 1021.97 388.4 1021.29 392.087L1013.74 433.087C1013.22 435.934 1010.73 438 1007.84 438H943.72C940.976 438 938.581 436.138 937.905 433.479L927.475 392.479C926.51 388.686 929.376 385 933.29 385Z" stroke="#112E3B" stroke-width="4"/>
<line x1="943.982" y1="385.733" x2="950.982" y2="437.733" stroke="black" stroke-width="4"/>
<line x1="972.527" y1="385.709" x2="974.47" y2="438.142" stroke="black" stroke-width="4"/>
<line x1="999.451" y1="386.289" x2="994.474" y2="438.522" stroke="black" stroke-width="4"/>
<line x1="1183" y1="604.5" x2="1280" y2="604.5" stroke="#807C7C"/>
<line x1="1187" y1="633.5" x2="1278" y2="633.5" stroke="#807C7C"/>
<line x1="1194" y1="667.5" x2="1274" y2="667.5" stroke="#807C7C"/>
</g>
<defs>
<clipPath id="clip0_351_2">
<rect width="1440" height="1024" fill="white"/>
</clipPath>
</defs>
</svg>
