<svg width="80" height="86" viewBox="0 0 80 86" fill="none" xmlns="http://www.w3.org/2000/svg">
<path d="M80 52.2146C80 70.7529 69.4729 85.7811 44.7552 85.7811C20.0376 85.7811 0 70.7529 0 52.2146C0 33.6764 20.0376 18.6482 44.7552 18.6482C69.4729 18.6482 80 33.6764 80 52.2146Z" fill="#FF4B57"/>
<path d="M52.028 0.186469C50.9091 -0.233118 43.0769 0.186524 43.0769 0.186524C43.0769 0.186524 45.8742 8.46645 45.8742 14.7322C45.8742 20.9979 24.2425 19.021 18.4616 16.4102C17.1189 22.676 29.4639 24.6154 35.8042 24.8019C35.8042 24.8019 27.4126 29.8368 22.3776 34.3126C17.3427 38.7884 39.7203 29.8368 39.7203 29.8368C39.7203 29.8368 32.4476 39.907 29.091 47.7389C25.7343 55.5708 45.8742 32.634 45.8742 32.634C45.8742 32.634 71.0491 44.941 69.3707 41.0254C67.6923 37.1098 54.8252 24.8019 54.8252 24.8019C54.8252 24.8019 79.4406 22.5644 76.0839 22.0049C72.7273 21.4455 55.5712 19.7671 54.8252 17.5294C54.0793 15.2916 53.1469 0.606055 52.028 0.186469Z" fill="#308F0F"/>
</svg>
