<svg width="80" height="75" viewBox="0 0 80 75" fill="none" xmlns="http://www.w3.org/2000/svg">
<path d="M78 37C78 41.8589 77.0042 46.6702 75.0694 51.1593C73.1346 55.6483 70.2987 59.7272 66.7236 63.163C63.1486 66.5987 58.9043 69.3241 54.2333 71.1835C49.5623 73.043 44.5559 74 39.5 74C34.4441 74 29.4377 73.043 24.7667 71.1835C20.0957 69.3241 15.8514 66.5987 12.2764 63.1629C8.70133 59.7272 5.86544 55.6483 3.93064 51.1593C1.99583 46.6702 1 41.8589 1 37L39.5 37H78Z" fill="#FFEBB7"/>
<path d="M76 34.7485C78.2091 34.7485 80.0205 36.5438 79.8028 38.7422C78.8906 47.951 74.8444 56.6093 68.2843 63.2107C60.7828 70.7593 50.6087 75.0001 40 75.0001C29.3913 75.0001 19.2172 70.7593 11.7157 63.2107C5.15558 56.6093 1.1094 47.951 0.197242 38.7422C-0.0205134 36.5438 1.79086 34.7485 4 34.7485L5.80423 34.7485C8.01337 34.7485 9.77724 36.5471 10.0654 38.7374C10.932 45.3239 13.9281 51.4845 18.6484 56.2345C24.3112 61.9329 31.9916 65.1342 40 65.1342C48.0084 65.1342 56.5594 61.9329 62.2222 56.2345C66.9413 51.4857 69.3325 45.327 69.9984 38.7423C70.2207 36.5443 71.9866 34.7485 74.1958 34.7485H76Z" fill="#E85050"/>
<path d="M31.0884 39.5588C31.5302 39.1868 32.9391 38.3391 32.9391 38.3391C32.7345 40.4676 31.8943 44.3353 30.3992 45.1051C28.9041 45.8749 27.0963 44.0489 27.9906 42.5434C28.8849 41.038 30.6466 39.9308 31.0884 39.5588Z" fill="#383333"/>
<path d="M49.4135 39.5588C48.9717 39.1868 47.5629 38.3391 47.5629 38.3391C47.7675 40.4676 48.6077 44.3353 50.1028 45.1051C51.5979 45.8749 53.4056 44.0489 52.5113 42.5434C51.6171 41.038 49.8553 39.9308 49.4135 39.5588Z" fill="#383333"/>
<path d="M40.8294 41.1324C40.5778 40.5947 39.6406 39.1863 39.6406 39.1863C38.9781 41.2054 38.1982 45.0875 39.2444 46.4647C40.2907 47.8418 42.6536 47.0125 42.4439 45.2432C42.2342 43.4739 41.081 41.6701 40.8294 41.1324Z" fill="#383333"/>
</svg>
