<svg width="72" height="80" viewBox="0 0 72 80" fill="none" xmlns="http://www.w3.org/2000/svg">
<ellipse cx="11.6326" cy="19.7497" rx="10.8274" ry="4.33098" transform="rotate(17.7668 11.6326 19.7497)" fill="#8EC63F"/>
<ellipse rx="10.8274" ry="4.33098" transform="matrix(0.143827 -0.989603 -0.989603 -0.143827 26.0974 11.3378)" fill="#8EC63F"/>
<ellipse cx="17.925" cy="13.6111" rx="10.8274" ry="4.33098" transform="rotate(-121.982 17.925 13.6111)" fill="#8EC63F"/>
<path d="M42.3145 11.7848C32.075 7.96672 8.96955 21.7562 6.49692 34.1504C4.02429 46.5446 39.8565 74.2986 51.3365 67.1302C55.3399 64.6304 52.5131 61.7165 52.5131 58.4682C51.9186 55.8101 55.7613 48.9401 56.8441 47.6408C59.5509 44.3925 61.747 41.2007 60.6337 38.4746C55.3834 25.6188 46.4278 13.3186 42.3145 11.7848Z" fill="#FC751B"/>
<path d="M38.0571 38.6967C38.0571 38.6967 41.9076 34.3776 45.0033 32.4445C48.099 30.5115 53.6699 28.9476 53.6699 28.9476" stroke="#B05213"/>
<path d="M47.1962 46.3932C47.1962 46.3932 49.8061 41.1442 56.844 38.4374" stroke="#B05213"/>
</svg>
