<svg width="87" height="91" viewBox="0 0 87 91" fill="none" xmlns="http://www.w3.org/2000/svg">
<path d="M31.5 29.5L36.5 26.5" stroke="#D79E37" stroke-linecap="round"/>
<path d="M75.1248 70.248C67.8166 82.8048 41.0204 85.0238 27.0117 59.0137C18.0055 39.5065 6.21979 18.3841 23.5003 11.5006C36.7281 6.23138 42.5033 8.00375 57.0107 28.5124C65.149 40.0174 86.0216 51.5251 75.1248 70.248Z" fill="#E7AD42"/>
<path d="M31.5 29.5C31.5 29.5 32.6763 28.5242 33.5 28C34.6051 27.2968 36.5 26.5 36.5 26.5" stroke="#A3782A" stroke-linecap="round"/>
<path d="M51 44C51 44 52.1763 43.0242 53 42.5C54.1051 41.7968 56 41 56 41" stroke="#A3782A" stroke-linecap="round"/>
<path d="M29 41C29 41 30.1763 40.0242 31 39.5C32.1051 38.7968 34 38 34 38" stroke="#A3782A" stroke-linecap="round"/>
<path d="M43 56C43 56 44.1763 55.0242 45 54.5C46.1051 53.7968 48 53 48 53" stroke="#A3782A" stroke-linecap="round"/>
<path d="M61 59C61 59 62.1763 58.0242 63 57.5C64.1051 56.7968 66 56 66 56" stroke="#A3782A" stroke-linecap="round"/>
</svg>
