<svg width="82" height="62" viewBox="0 0 82 62" fill="none" xmlns="http://www.w3.org/2000/svg">
<path d="M1.35053 45.536L6.7625 29.6867C8.69536 24.0262 69.3866 27.3673 72.0926 26.9807C74.7986 26.5942 81.3702 45.536 80.9837 49.4017C80.6744 52.4943 75.9583 53.5251 73.6389 53.654C55.599 54.0405 17.4318 54.5817 9.08191 53.654C0.732025 52.7262 0.448541 47.8554 1.35053 45.536Z" fill="#D0D6D8" stroke="black"/>
<path d="M13.7207 59.8391C12.561 58.6794 11.7878 54.0405 11.7878 54.0405L23.7715 54.4271C23.7715 54.4271 23.5167 58.6794 22.2252 59.8391C20.9336 60.9988 14.8804 60.9988 13.7207 59.8391Z" fill="#D0D6D8" stroke="black" stroke-linejoin="round"/>
<path d="M38.8476 60.2257C37.6879 59.0659 36.9148 54.4271 36.9148 54.4271H43.0999H49.285C49.285 54.4271 48.6437 59.0659 47.3521 60.2257C46.0606 61.3854 40.0073 61.3854 38.8476 60.2257Z" fill="#D0D6D8" stroke="black" stroke-linejoin="round"/>
<path d="M61.2687 59.4525C60.109 58.2928 59.3358 54.0405 59.3358 54.0405L71.706 53.6539C71.706 53.6539 71.0647 58.2928 69.7732 59.4525C68.4816 60.6122 62.4284 60.6122 61.2687 59.4525Z" fill="#D0D6D8" stroke="black" stroke-linejoin="round"/>
<path d="M12.9476 26.2076C4.09186 26.2076 2.89679 17.7031 3.28336 14.6105C12.561 11.518 75.9582 13.4508 79.8239 14.6105C82.9165 15.5383 76.6025 22.7284 72.0926 26.2075C72.0926 26.594 23.7715 26.2076 12.9476 26.2076Z" fill="#D0D6D8"/>
<path d="M72.0926 26.2075C72.0926 26.594 23.7715 26.2076 12.9476 26.2076C4.09186 26.2076 2.89679 17.7031 3.28336 14.6105C12.561 11.518 75.9582 13.4508 79.8239 14.6105C82.9165 15.5383 76.6025 22.7284 72.0926 26.2075ZM72.0926 26.2075C73.3296 26.2075 71.3195 26.2075 72.0926 26.2075Z" stroke="black"/>
<path d="M11.0148 1.85378C7.61296 3.40005 4.18538 11.0025 3.28339 14.6105C19.0038 13.4508 56.3206 11.8273 79.824 14.6105C73.0204 1.62187 69.3866 1.8961 68.2269 1.85378C50.5736 1.2095 14.4166 0.307504 11.0148 1.85378Z" fill="#D0D6D8" stroke="black"/>
<path d="M24.8178 32.7792C24.8178 33.7798 24.6153 34.5063 24.2845 35.0432C23.9557 35.5768 23.4757 35.9631 22.8491 36.2435C21.5622 36.8192 19.7363 36.918 17.5864 36.918C15.4366 36.918 13.6106 36.8192 12.3237 36.2435C11.6971 35.9631 11.2171 35.5768 10.8883 35.0432C10.5576 34.5063 10.355 33.7798 10.355 32.7792C10.355 28.7854 13.5926 25.5479 17.5864 25.5479C21.5802 25.5479 24.8178 28.7854 24.8178 32.7792Z" fill="#E6C3A6" stroke="black"/>
<path d="M24.8178 32.7792C24.8178 33.7798 24.6153 34.5063 24.2845 35.0432C23.9557 35.5768 23.4757 35.9631 22.8491 36.2435C21.5622 36.8192 19.7363 36.918 17.5864 36.918C15.4366 36.918 13.6106 36.8192 12.3237 36.2435C11.6971 35.9631 11.2171 35.5768 10.8883 35.0432C10.5576 34.5063 10.355 33.7798 10.355 32.7792C10.355 28.7854 13.5926 25.5479 17.5864 25.5479C21.5802 25.5479 24.8178 28.7854 24.8178 32.7792Z" fill="#E6C3A6" stroke="black"/>
<path d="M17.5865 28.527C16.5556 28.0116 13.7208 28.9136 13.3342 31.6195" stroke="black" stroke-linejoin="round"/>
<path d="M49.5582 32.7792C49.5582 33.7798 49.3557 34.5063 49.0249 35.0432C48.6962 35.5768 48.2161 35.9631 47.5895 36.2435C46.3027 36.8192 44.4767 36.918 42.3268 36.918C40.177 36.918 38.351 36.8192 37.0641 36.2435C36.4376 35.9631 35.9575 35.5768 35.6287 35.0432C35.298 34.5063 35.0955 33.7798 35.0955 32.7792C35.0955 28.7854 38.3331 25.5479 42.3268 25.5479C46.3206 25.5479 49.5582 28.7854 49.5582 32.7792Z" fill="#E6C3A6" stroke="black"/>
<path d="M42.3268 28.527C41.296 28.0116 38.4612 28.9136 38.0746 31.6195" stroke="black" stroke-linejoin="round"/>
<path d="M24.8178 43.6032C24.8178 44.6037 24.6153 45.3303 24.2845 45.8671C23.9557 46.4008 23.4757 46.7871 22.8491 47.0674C21.5622 47.6432 19.7363 47.742 17.5864 47.742C15.4366 47.742 13.6106 47.6432 12.3237 47.0674C11.6971 46.7871 11.2171 46.4008 10.8883 45.8671C10.5576 45.3303 10.355 44.6037 10.355 43.6032C10.355 39.6094 13.5926 36.3718 17.5864 36.3718C21.5802 36.3718 24.8178 39.6094 24.8178 43.6032Z" fill="#E6C3A6" stroke="black"/>
<path d="M17.5865 39.3509C16.5556 38.8354 13.7208 39.7374 13.3342 42.4434" stroke="black" stroke-linejoin="round"/>
<path d="M72.7523 45.536C72.7523 46.6753 71.9677 47.7959 70.507 48.659C69.0576 49.5155 67.0225 50.0614 64.7478 50.0614C62.4731 50.0614 60.438 49.5155 58.9886 48.659C57.5279 47.7959 56.7433 46.6753 56.7433 45.536C56.7433 44.3967 57.5279 43.2761 58.9886 42.413C60.438 41.5565 62.4731 41.0106 64.7478 41.0106C67.0225 41.0106 69.0576 41.5565 70.507 42.413C71.9677 43.2761 72.7523 44.3967 72.7523 45.536Z" fill="#D0D6D8" stroke="black"/>
<path d="M50.3313 45.536C50.3313 46.6753 49.5466 47.7959 48.086 48.659C46.6366 49.5155 44.6015 50.0614 42.3268 50.0614C40.052 50.0614 38.017 49.5155 36.5675 48.659C35.1069 47.7959 34.3223 46.6753 34.3223 45.536C34.3223 44.3967 35.1069 43.2761 36.5675 42.413C38.017 41.5565 40.052 41.0106 42.3268 41.0106C44.6015 41.0106 46.6366 41.5565 48.086 42.413C49.5466 43.2761 50.3313 44.3967 50.3313 45.536Z" fill="#D0D6D8" stroke="black"/>
<path d="M72.7523 32.3927C72.7523 33.532 71.9677 34.6526 70.507 35.5157C69.0576 36.3722 67.0225 36.9181 64.7478 36.9181C62.4731 36.9181 60.438 36.3722 58.9886 35.5157C57.5279 34.6526 56.7433 33.532 56.7433 32.3927C56.7433 31.2534 57.5279 30.1328 58.9886 29.2697C60.438 28.4132 62.4731 27.8673 64.7478 27.8673C67.0225 27.8673 69.0576 28.4132 70.507 29.2697C71.9677 30.1328 72.7523 31.2534 72.7523 32.3927Z" fill="#D0D6D8" stroke="black"/>
<path d="M60.4955 49.4016C61.8562 48.2348 65.8487 46.6012 69.3866 49.4016" stroke="black" stroke-linejoin="round"/>
<path d="M38.0746 49.4016C39.4353 48.2348 43.4278 46.6012 46.9657 49.4016" stroke="black" stroke-linejoin="round"/>
<path d="M60.4955 36.2583C61.8562 35.0915 65.8487 33.4579 69.3866 36.2583" stroke="black" stroke-linejoin="round"/>
</svg>
