<svg width="82" height="54" viewBox="0 0 82 54" fill="none" xmlns="http://www.w3.org/2000/svg">
<path d="M43.1158 3.2622C55.4728 1.65567 80.348 3.2622 80.9927 22.5406C81.3446 33.0614 68.9046 38.1521 48.7573 48.2452C44.2439 50.5062 40.5712 52.0673 37.4744 53.0315C30.221 55.2902 10.6356 39.5627 1.94867 28.9668C0.162402 25.9613 1.39021 23.3439 1.94895 22.5406C6.17155 16.4676 18.1771 10.0414 43.1158 3.2622Z" fill="#BF7216"/>
<path d="M1.94895 22.5406C6.17155 16.4676 18.1771 10.0414 43.1158 3.2622C55.4728 1.65567 80.348 3.2622 80.9927 22.5406C81.3445 33.0614 68.9046 38.1521 48.7573 48.2452C44.2439 50.5062 40.5712 52.0673 37.4744 53.0315M1.94895 22.5406C5.23882 21.7374 8.7228 21.8378 12.4918 23.3439C27.859 29.4849 45.533 48.2452 37.4744 53.0315M1.94895 22.5406C1.39021 23.3439 0.162402 25.9613 1.94867 28.9668C10.6356 39.5627 30.221 55.2902 37.4744 53.0315" stroke="black"/>
<path d="M11.7398 14.4395L17.4088 12.0099C17.4088 12.0099 23.6197 14.4639 28.4813 17.679C34.1438 21.4237 38.5268 26.0899 37.6553 27.3972C36.0356 29.8267 26.1375 22.1431 18.1835 19.2678C10.7691 16.5874 6.88055 17.679 6.88055 17.679L11.7398 14.4395Z" fill="#EBBE88" stroke="black"/>
<path d="M39.8966 4.3359C39.8966 4.3359 55.1195 14.4535 55.1195 20.1225C55.1195 23.0415 45.7604 15.7528 38.2642 12.0593C31.202 8.57954 25.5075 8.77044 25.5075 8.77044L39.8966 4.3359Z" fill="#EBBE88" stroke="black"/>
<path d="M9.94527 22.357C6.64998 21.945 3.42334 22.1853 2.22194 22.357C-0.352507 26.9909 0.162381 29.0506 13.5495 40.3782C24.2592 49.4402 31.399 52.3922 33.6302 52.7355C37.0628 53.422 42.4862 52.4266 36.7195 42.9526C29.511 31.1102 14.0644 22.8718 9.94527 22.357Z" fill="#EBBE88" stroke="black"/>
</svg>
