<svg width="81" height="74" viewBox="0 0 81 74" fill="none" xmlns="http://www.w3.org/2000/svg">
<path d="M27.8991 68.5192C42.4943 73.8968 70.4561 81.1177 77.8306 45.4742C83.4292 18.4144 52.4828 3.21126 27.8991 4.76082C20.1009 5.25235 12.5355 8.60174 6.39012 17.0514C-6.42276 34.6688 4.74262 59.9872 27.8991 68.5192Z" fill="#A77B4E" stroke="#A77B4E"/>
<path d="M74.758 39.3288C71.4082 49.7654 62.4669 58.0016 40.1898 50.8514C23.193 45.396 6.1131 29.0246 9.4629 18.588C12.8127 8.15138 32.4111 5.4507 49.4079 10.9061C66.4046 16.3615 78.1078 28.8922 74.758 39.3288Z" fill="#C1DA6B"/>
<path d="M48.6398 24.4274H38.6535C38.1866 26.6638 39.4215 30.5729 39.4215 30.5729L48.6398 35.1818L54.017 29.8046L48.6398 24.4274Z" fill="#EFEAD1"/>
<path d="M43.6533 19.0648C43.1786 18.982 42.7949 19.2497 42.5576 19.8293C42.1749 20.7639 43.6533 22.1228 43.6533 22.1228C43.6533 22.1228 44.5024 19.2129 43.6533 19.0648Z" fill="black"/>
<path d="M51.5669 20.3471C50.8435 19.7198 49.9821 19.6315 49.1065 20.0948C47.6947 20.8419 49.0365 24.173 49.0365 24.173C49.0365 24.173 52.8609 21.4693 51.5669 20.3471Z" fill="black"/>
<path d="M47.0213 20.9162C46.6985 20.6825 46.3385 20.676 45.9933 20.8976C45.4367 21.255 46.1165 22.583 46.1165 22.583C46.1165 22.583 47.5989 21.3343 47.0213 20.9162Z" fill="black"/>
<path d="M42.7731 37.7592C43.0933 37.9967 43.4531 38.0074 43.8009 37.7899C44.3616 37.4391 43.6975 36.1032 43.6975 36.1032C43.6975 36.1032 42.2005 37.3344 42.7731 37.7592Z" fill="black"/>
<path d="M46.2571 40.7948C47.0683 41.242 47.912 41.1056 48.6667 40.4052C49.8835 39.2758 47.9759 36.2448 47.9759 36.2448C47.9759 36.2448 44.8059 39.9948 46.2571 40.7948Z" fill="black"/>
<path d="M31.7749 28.9105C31.6669 29.5815 32.0814 30.1117 32.9587 30.4246C34.3733 30.9292 36.3605 28.7993 36.3605 28.7993C36.3605 28.7993 31.9681 27.7101 31.7749 28.9105Z" fill="black"/>
<path d="M33.572 34.0872C33.8121 34.7646 34.4431 35.0651 35.3742 34.9455C36.8755 34.7527 37.5656 31.8307 37.5656 31.8307C37.5656 31.8307 33.1426 32.8755 33.572 34.0872Z" fill="black"/>
<path d="M38.3657 37.8236C38.85 38.6496 39.6377 39.0092 40.6156 38.8508C42.1923 38.5953 41.9883 35.0099 41.9883 35.0099C41.9883 35.0099 37.4994 36.346 38.3657 37.8236Z" fill="black"/>
<path d="M53.6758 37.8686C54.5288 37.7433 55.0744 37.1612 55.2342 36.206C55.4918 34.6658 52.3624 33.4737 52.3624 33.4737C52.3624 33.4737 52.1499 38.0927 53.6758 37.8686Z" fill="black"/>
<path d="M57.1597 32.2802C57.5941 31.8201 57.6765 31.2537 57.395 30.6627C56.941 29.7096 54.704 30.5027 54.704 30.5027C54.704 30.5027 56.3826 33.1033 57.1597 32.2802Z" fill="black"/>
<path d="M56.4846 24.4629C56.1396 23.5698 55.4201 23.088 54.4295 23.0869C52.8322 23.0852 52.4563 26.6567 52.4563 26.6567C52.4563 26.6567 57.1017 26.0607 56.4846 24.4629Z" fill="black"/>
<path d="M33.3712 24.029C32.7321 24.742 32.6297 25.6019 33.0787 26.4849C33.8026 27.9087 37.1553 26.6215 37.1553 26.6215C37.1553 26.6215 34.5143 22.7535 33.3712 24.029Z" fill="black"/>
<path d="M37.3823 18.9949C36.5041 19.3763 36.0523 20.1151 36.0921 21.1049C36.1561 22.7009 39.7401 22.9295 39.7401 22.9295C39.7401 22.9295 38.9533 18.3125 37.3823 18.9949Z" fill="black"/>
</svg>
