<svg width="39" height="83" viewBox="0 0 39 83" fill="none" xmlns="http://www.w3.org/2000/svg">
<path d="M11.5571 11.9978C17 10 17.2276 5.00654 16.4096 2.23468L24.6038 2.65249C23.3046 6.22645 24 9.49997 29.9942 12.9379C23.7797 13.5311 8.11003 13.2631 11.5571 11.9978Z" fill="#FEF8E3" stroke="#984B20"/>
<path d="M36.5612 13.2113L38.4145 79.9307C38.4536 81.3381 37.3234 82.5001 35.9155 82.5001H3.17129C1.73608 82.5001 0.59553 81.2944 0.675142 79.8615L4.37775 13.2144C4.43806 12.1288 5.19309 11.2067 6.24544 10.9334L11.4548 9.5804C11.66 9.5271 11.8712 9.50012 12.0832 9.50012H29.5799C29.8121 9.50012 30.0433 9.53249 30.2666 9.5963L34.749 10.8769C35.7975 11.1765 36.531 12.1212 36.5612 13.2113Z" fill="#FEF8E3" stroke="#984B20"/>
<ellipse cx="20.125" cy="1.33333" rx="8.125" ry="1.33333" fill="#E5B96E"/>
<ellipse cx="20.125" cy="3.99996" rx="8.125" ry="1.33333" fill="#E5B96E"/>
<rect x="12" y="1.33337" width="16.25" height="2.66667" fill="#E5B96E"/>
<path d="M3.90499 27.9001C3.95821 26.8357 4.83675 26 5.9025 26H34.0975C35.1633 26 36.0418 26.8357 36.095 27.9001L36.895 43.9001C36.9521 45.0425 36.0413 46 34.8975 46H5.1025C3.9587 46 3.04788 45.0425 3.10499 43.9001L3.90499 27.9001Z" fill="white"/>
<path d="M5.94318 33.1818L7.67045 38.0795H7.73864L9.46591 33.1818H10.2045L8.06818 39H7.34091L5.20455 33.1818H5.94318ZM11.0199 39V34.6364H11.6903V39H11.0199ZM11.3608 33.9091C11.2301 33.9091 11.1174 33.8646 11.0227 33.7756C10.9299 33.6866 10.8835 33.5795 10.8835 33.4545C10.8835 33.3295 10.9299 33.2225 11.0227 33.1335C11.1174 33.0445 11.2301 33 11.3608 33C11.4915 33 11.6032 33.0445 11.696 33.1335C11.7907 33.2225 11.8381 33.3295 11.8381 33.4545C11.8381 33.5795 11.7907 33.6866 11.696 33.7756C11.6032 33.8646 11.4915 33.9091 11.3608 33.9091ZM13.5888 36.375V39H12.9183V34.6364H13.5661V35.3182H13.6229C13.7251 35.0966 13.8804 34.9186 14.0888 34.7841C14.2971 34.6477 14.5661 34.5795 14.8956 34.5795C15.1911 34.5795 15.4496 34.6402 15.6712 34.7614C15.8928 34.8807 16.0651 35.0625 16.1882 35.3068C16.3113 35.5492 16.3729 35.8561 16.3729 36.2273V39H15.7024V36.2727C15.7024 35.9299 15.6134 35.6629 15.4354 35.4716C15.2573 35.2784 15.013 35.1818 14.7024 35.1818C14.4884 35.1818 14.2971 35.2282 14.1286 35.321C13.9619 35.4138 13.8303 35.5492 13.7337 35.7273C13.6371 35.9053 13.5888 36.1212 13.5888 36.375ZM19.4276 39.0909C19.0071 39.0909 18.6444 38.9981 18.3395 38.8125C18.0365 38.625 17.8026 38.3636 17.6378 38.0284C17.4749 37.6913 17.3935 37.2992 17.3935 36.8523C17.3935 36.4053 17.4749 36.0114 17.6378 35.6705C17.8026 35.3277 18.0317 35.0606 18.3253 34.8693C18.6207 34.6761 18.9654 34.5795 19.3594 34.5795C19.5866 34.5795 19.8111 34.6174 20.0327 34.6932C20.2543 34.7689 20.456 34.892 20.6378 35.0625C20.8196 35.2311 20.9645 35.4545 21.0724 35.733C21.1804 36.0114 21.2344 36.3542 21.2344 36.7614V37.0455H17.8707V36.4659H20.5526C20.5526 36.2197 20.5033 36 20.4048 35.8068C20.3082 35.6136 20.17 35.4612 19.9901 35.3494C19.812 35.2377 19.6018 35.1818 19.3594 35.1818C19.0923 35.1818 18.8613 35.2481 18.6662 35.3807C18.473 35.5114 18.3243 35.6818 18.2202 35.892C18.116 36.1023 18.0639 36.3277 18.0639 36.5682V36.9545C18.0639 37.2841 18.1207 37.5634 18.2344 37.7926C18.3499 38.0199 18.5099 38.1932 18.7145 38.3125C18.919 38.4299 19.1567 38.4886 19.4276 38.4886C19.6037 38.4886 19.7628 38.464 19.9048 38.4148C20.0488 38.3636 20.1728 38.2879 20.277 38.1875C20.3812 38.0852 20.4616 37.9583 20.5185 37.8068L21.1662 37.9886C21.098 38.2083 20.9834 38.4015 20.8224 38.5682C20.6615 38.733 20.4626 38.8617 20.2259 38.9545C19.9891 39.0455 19.723 39.0909 19.4276 39.0909ZM24.0156 40.7273C23.6918 40.7273 23.4134 40.6856 23.1804 40.6023C22.9474 40.5208 22.7533 40.4129 22.598 40.2784C22.4446 40.1458 22.3224 40.0038 22.2315 39.8523L22.7656 39.4773C22.8262 39.5568 22.9029 39.6477 22.9957 39.75C23.0885 39.8542 23.2154 39.9441 23.3764 40.0199C23.5393 40.0975 23.7524 40.1364 24.0156 40.1364C24.3679 40.1364 24.6586 40.0511 24.8878 39.8807C25.117 39.7102 25.2315 39.4432 25.2315 39.0795V38.1932H25.1747C25.1255 38.2727 25.0554 38.3712 24.9645 38.4886C24.8755 38.6042 24.7467 38.7074 24.5781 38.7983C24.4115 38.8873 24.1861 38.9318 23.902 38.9318C23.5497 38.9318 23.2334 38.8485 22.9531 38.6818C22.6747 38.5152 22.4541 38.2727 22.2912 37.9545C22.1302 37.6364 22.0497 37.25 22.0497 36.7955C22.0497 36.3485 22.1283 35.9593 22.2855 35.6278C22.4427 35.2945 22.6615 35.0369 22.9418 34.8551C23.2221 34.6714 23.5459 34.5795 23.9134 34.5795C24.1974 34.5795 24.4228 34.6269 24.5895 34.7216C24.758 34.8144 24.8868 34.9205 24.9759 35.0398C25.0668 35.1572 25.1368 35.2538 25.1861 35.3295H25.2543V34.6364H25.902V39.125C25.902 39.5 25.8168 39.8049 25.6463 40.0398C25.4777 40.2765 25.2505 40.4498 24.9645 40.5597C24.6804 40.6714 24.3641 40.7273 24.0156 40.7273ZM23.9929 38.3295C24.2618 38.3295 24.4891 38.268 24.6747 38.1449C24.8603 38.0218 25.0014 37.8447 25.098 37.6136C25.1946 37.3826 25.2429 37.1061 25.2429 36.7841C25.2429 36.4697 25.1955 36.1922 25.1009 35.9517C25.0062 35.7112 24.866 35.5227 24.6804 35.3864C24.4948 35.25 24.2656 35.1818 23.9929 35.1818C23.7088 35.1818 23.4721 35.2538 23.2827 35.3977C23.0952 35.5417 22.9541 35.7348 22.8594 35.9773C22.7666 36.2197 22.7202 36.4886 22.7202 36.7841C22.7202 37.0871 22.7675 37.3551 22.8622 37.5881C22.9588 37.8191 23.1009 38.0009 23.2884 38.1335C23.4777 38.2642 23.7126 38.3295 23.9929 38.3295ZM28.4134 39.1023C28.1368 39.1023 27.8859 39.0502 27.6605 38.946C27.4351 38.84 27.2562 38.6875 27.1236 38.4886C26.991 38.2879 26.9247 38.0455 26.9247 37.7614C26.9247 37.5114 26.974 37.3087 27.0724 37.1534C27.1709 36.9962 27.3026 36.8731 27.4673 36.7841C27.6321 36.6951 27.8139 36.6288 28.0128 36.5852C28.2135 36.5398 28.4152 36.5038 28.6179 36.4773C28.883 36.4432 29.098 36.4176 29.2628 36.4006C29.4295 36.3816 29.5507 36.3504 29.6264 36.3068C29.7041 36.2633 29.7429 36.1875 29.7429 36.0795V36.0568C29.7429 35.7765 29.6662 35.5587 29.5128 35.4034C29.3613 35.2481 29.1312 35.1705 28.8224 35.1705C28.5024 35.1705 28.2514 35.2405 28.0696 35.3807C27.8878 35.5208 27.7599 35.6705 27.6861 35.8295L27.0497 35.6023C27.1634 35.3371 27.3149 35.1307 27.5043 34.983C27.6955 34.8333 27.9039 34.7292 28.1293 34.6705C28.3565 34.6098 28.58 34.5795 28.7997 34.5795C28.9399 34.5795 29.1009 34.5966 29.2827 34.6307C29.4664 34.6629 29.6435 34.7301 29.8139 34.8324C29.9863 34.9347 30.1293 35.089 30.2429 35.2955C30.3565 35.5019 30.4134 35.7784 30.4134 36.125V39H29.7429V38.4091H29.7088C29.6634 38.5038 29.5876 38.6051 29.4815 38.7131C29.3755 38.821 29.2344 38.9129 29.0582 38.9886C28.8821 39.0644 28.6671 39.1023 28.4134 39.1023ZM28.5156 38.5C28.7808 38.5 29.0043 38.4479 29.1861 38.3438C29.3698 38.2396 29.508 38.1051 29.6009 37.9403C29.6955 37.7756 29.7429 37.6023 29.7429 37.4205V36.8068C29.7145 36.8409 29.652 36.8722 29.5554 36.9006C29.4607 36.9271 29.3509 36.9508 29.2259 36.9716C29.1027 36.9905 28.9825 37.0076 28.8651 37.0227C28.7495 37.036 28.6558 37.0473 28.5838 37.0568C28.4096 37.0795 28.2467 37.1165 28.0952 37.1676C27.9455 37.2169 27.8243 37.2917 27.7315 37.392C27.6406 37.4905 27.5952 37.625 27.5952 37.7955C27.5952 38.0284 27.6813 38.2045 27.8537 38.3239C28.0279 38.4413 28.2486 38.5 28.5156 38.5ZM31.6371 39V34.6364H32.2848V35.2955H32.3303C32.4098 35.0795 32.5537 34.9044 32.7621 34.7699C32.9704 34.6354 33.2053 34.5682 33.4666 34.5682C33.5159 34.5682 33.5774 34.5691 33.6513 34.571C33.7251 34.5729 33.781 34.5758 33.8189 34.5795V35.2614C33.7962 35.2557 33.7441 35.2472 33.6626 35.2358C33.5831 35.2225 33.4988 35.2159 33.4098 35.2159C33.1977 35.2159 33.0083 35.2604 32.8416 35.3494C32.6768 35.4366 32.5462 35.5578 32.4496 35.7131C32.3549 35.8665 32.3075 36.0417 32.3075 36.2386V39H31.6371Z" fill="#BEAA28"/>
</svg>
