<svg width="84" height="77" viewBox="0 0 84 77" fill="none" xmlns="http://www.w3.org/2000/svg">
<path d="M6.38922 76C6.38922 51.5689 2.79641 19.7126 1 6.83832L66.5689 1L83.1856 76H6.38922Z" fill="white" stroke="black" stroke-linecap="round"/>
<path d="M5.94531 52.1976H77.3473L82.7366 75.5509H6.83832L5.94531 52.1976Z" fill="#FFE68A" fill-opacity="0.47"/>
<line x1="46.1332" y1="59.5462" x2="25.8203" y2="72.171" stroke="#FFDB59" stroke-width="1.5"/>
<line x1="40.5467" y1="63.6638" x2="63.3938" y2="70.7356" stroke="#FFDB59" stroke-width="1.5"/>
<line x1="62.1713" y1="54.3744" x2="81.0336" y2="74.1348" stroke="#FFDB59" stroke-width="1.5"/>
<line x1="58.0982" y1="66.7196" x2="79.6551" y2="68.516" stroke="#FFDB59" stroke-width="1.5"/>
<line x1="41.3926" y1="59.6618" x2="61.1531" y2="73.1349" stroke="#FFDB59" stroke-width="1.5"/>
<line x1="8.31274" y1="60.6995" x2="17.2948" y2="71.478" stroke="#FFDB59" stroke-width="1.5"/>
<line x1="52.11" y1="64.1153" x2="70.074" y2="73.9955" stroke="#FFDB59" stroke-width="1.5"/>
<line x1="18.2633" y1="64.135" x2="40.8219" y2="72.079" stroke="#FFDB59" stroke-width="1.5"/>
<line x1="31.5123" y1="59.6618" x2="51.2728" y2="73.1349" stroke="#FFDB59" stroke-width="1.5"/>
<line x1="57.5602" y1="59.6618" x2="77.3207" y2="73.1349" stroke="#FFDB59" stroke-width="1.5"/>
<line x1="51.9949" y1="57.7766" x2="72.6536" y2="64.9622" stroke="#FFDB59" stroke-width="1.5"/>
<line x1="12.5287" y1="55.4152" x2="27.4689" y2="74.091" stroke="#FFDB59" stroke-width="1.5"/>
<line x1="17.3042" y1="55.3219" x2="32.2445" y2="73.9977" stroke="#FFC164" stroke-width="1.5"/>
<rect x="12.2275" y="18.9912" width="48.503" height="16.6621" rx="1" transform="rotate(-3.21674 12.2275 18.9912)" fill="#FFC164"/>
<path d="M26.3715 26.0845L25.6675 26.1109C25.6183 25.9099 25.5387 25.7348 25.4289 25.5854C25.321 25.4359 25.1912 25.3119 25.0397 25.2133C24.89 25.1128 24.7252 25.0393 24.5453 24.993C24.3654 24.9467 24.179 24.9271 23.9859 24.9343C23.6339 24.9475 23.3183 25.0484 23.0392 25.237C22.762 25.4255 22.5456 25.6961 22.3901 26.0488C22.2365 26.4014 22.1692 26.8294 22.188 27.3328C22.2069 27.8362 22.306 28.258 22.4856 28.5981C22.667 28.9382 22.9029 29.1918 23.1935 29.3591C23.4859 29.5263 23.8082 29.6033 24.1602 29.5902C24.3532 29.5829 24.5377 29.5495 24.7137 29.4898C24.8896 29.4302 25.0485 29.3456 25.1903 29.236C25.3339 29.1245 25.454 28.9902 25.5505 28.8331C25.6488 28.674 25.715 28.4934 25.7491 28.2912L26.4531 28.2648C26.4113 28.5639 26.3247 28.8335 26.1934 29.0734C26.0622 29.3133 25.8955 29.5195 25.6935 29.692C25.4914 29.8625 25.2623 29.9952 25.0062 30.0901C24.752 30.1849 24.4782 30.2378 24.1849 30.2488C23.689 30.2673 23.2435 30.1627 22.8483 29.9349C22.4532 29.7071 22.1365 29.374 21.8983 28.9357C21.6602 28.4973 21.5296 27.9715 21.5067 27.3583C21.4837 26.7451 21.5746 26.211 21.7793 25.7561C21.984 25.3011 22.2749 24.9453 22.6519 24.6886C23.029 24.4319 23.4654 24.2943 23.9613 24.2757C24.2546 24.2647 24.5316 24.297 24.7922 24.3725C25.0547 24.448 25.2931 24.5641 25.5074 24.721C25.7217 24.876 25.9033 25.0682 26.0521 25.2976C26.2009 25.5252 26.3073 25.7875 26.3715 26.0845ZM28.1398 27.3943L28.238 30.0175L27.568 30.0425L27.3504 24.2284L28.0204 24.2034L28.1003 26.3382L28.157 26.3361C28.2508 26.1071 28.3974 25.9225 28.5969 25.7823C28.7981 25.6402 29.07 25.5628 29.4126 25.55C29.7097 25.5388 29.9722 25.5887 30.2 25.6996C30.4277 25.8086 30.6077 25.9828 30.7398 26.2224C30.8738 26.4599 30.9478 26.7661 30.9618 27.1408L31.0656 29.9116L30.3956 29.9367L30.2936 27.2113C30.2806 26.865 30.1807 26.6006 29.9938 26.418C29.8087 26.2335 29.5582 26.1472 29.2421 26.159C29.0225 26.1672 28.8275 26.221 28.6568 26.3202C28.488 26.4194 28.3568 26.5598 28.2632 26.7415C28.1714 26.9231 28.1303 27.1407 28.1398 27.3943ZM34.1229 29.8882C33.7028 29.9039 33.3369 29.8247 33.0252 29.6506C32.7154 29.4746 32.4719 29.2222 32.2947 28.8934C32.1193 28.5626 32.0232 28.1738 32.0065 27.7272C31.9898 27.2805 32.0564 26.8838 32.2065 26.537C32.3583 26.1883 32.5773 25.9129 32.8635 25.7108C33.1515 25.5067 33.4924 25.3972 33.886 25.3825C34.1132 25.374 34.3388 25.4035 34.5631 25.4709C34.7874 25.5383 34.9936 25.6538 35.1816 25.8173C35.3696 25.9789 35.5228 26.1969 35.6411 26.471C35.7593 26.7452 35.8261 27.0858 35.8413 27.4927L35.852 27.7766L32.4907 27.9024L32.469 27.3232L35.1489 27.2229C35.1397 26.9769 35.0823 26.7592 34.9767 26.5698C34.8729 26.3804 34.7291 26.2332 34.5451 26.1283C34.363 26.0233 34.1508 25.9753 33.9086 25.9844C33.6417 25.9943 33.4133 26.0692 33.2233 26.209C33.0352 26.3468 32.893 26.5227 32.7967 26.7367C32.7005 26.9507 32.6569 27.1778 32.6659 27.4182L32.6803 27.8043C32.6927 28.1336 32.7599 28.4107 32.882 28.6354C33.006 28.8582 33.1724 29.0254 33.3812 29.137C33.59 29.2467 33.8297 29.2964 34.1004 29.2863C34.2764 29.2797 34.4345 29.2492 34.5746 29.1946C34.7165 29.1382 34.8376 29.0578 34.938 28.9536C35.0382 28.8475 35.1139 28.7177 35.165 28.5642L35.8191 28.7216C35.7592 28.9437 35.6519 29.1411 35.4973 29.3136C35.3426 29.4843 35.1487 29.6204 34.9156 29.722C34.6824 29.8217 34.4182 29.8771 34.1229 29.8882ZM38.7759 29.714C38.3558 29.7297 37.9898 29.6505 37.6782 29.4765C37.3684 29.3004 37.1248 29.048 36.9476 28.7192C36.7723 28.3884 36.6762 27.9997 36.6595 27.553C36.6428 27.1064 36.7094 26.7096 36.8594 26.3629C37.0113 26.0142 37.2303 25.7387 37.5165 25.5366C37.8045 25.3325 38.1454 25.2231 38.539 25.2083C38.7661 25.1998 38.9918 25.2293 39.2161 25.2967C39.4404 25.3641 39.6465 25.4796 39.8346 25.6431C40.0226 25.8048 40.1758 26.0227 40.294 26.2969C40.4123 26.571 40.4791 26.9116 40.4943 27.3185L40.505 27.6024L37.1437 27.7282L37.122 27.1491L39.8019 27.0488C39.7927 26.8027 39.7353 26.585 39.6297 26.3956C39.5259 26.2062 39.382 26.059 39.1981 25.9541C39.016 25.8491 38.8038 25.8011 38.5616 25.8102C38.2947 25.8202 38.0663 25.8951 37.8763 26.0348C37.6881 26.1727 37.5459 26.3486 37.4497 26.5625C37.3535 26.7765 37.3099 27.0037 37.3189 27.244L37.3333 27.6301C37.3456 27.9594 37.4129 28.2365 37.535 28.4612C37.659 28.684 37.8254 28.8512 38.0342 28.9628C38.243 29.0725 38.4827 29.1223 38.7534 29.1121C38.9294 29.1056 39.0875 29.075 39.2276 29.0205C39.3695 28.964 39.4906 28.8836 39.591 28.7794C39.6912 28.6733 39.7669 28.5435 39.818 28.39L40.4721 28.5475C40.4122 28.7696 40.3049 28.9669 40.1503 29.1395C39.9956 29.3101 39.8017 29.4463 39.5685 29.5479C39.3354 29.6476 39.0712 29.7029 38.7759 29.714ZM44.5593 26.0178L43.9638 26.2107C43.9222 26.1118 43.8628 26.0164 43.7854 25.9245C43.7099 25.8307 43.6085 25.7549 43.4812 25.6971C43.354 25.6393 43.1929 25.6141 42.9979 25.6214C42.7311 25.6314 42.511 25.7012 42.3377 25.8309C42.1662 25.9586 42.084 26.1161 42.091 26.3035C42.0972 26.4701 42.1627 26.5993 42.2875 26.6913C42.4122 26.7833 42.6045 26.8567 42.8643 26.9114L43.5175 27.0461C43.9109 27.1262 44.2069 27.2601 44.4053 27.4479C44.6037 27.6338 44.7086 27.8791 44.72 28.1838C44.7293 28.4336 44.6658 28.6596 44.5293 28.8618C44.3947 29.064 44.2018 29.2266 43.9506 29.3497C43.6993 29.4728 43.4043 29.5407 43.0655 29.5534C42.6208 29.5701 42.249 29.4873 41.9503 29.3052C41.6517 29.1231 41.4566 28.848 41.3651 28.4799L41.9951 28.2971C42.0644 28.5296 42.1855 28.7013 42.3583 28.8123C42.5331 28.9233 42.7576 28.9736 43.0321 28.9634C43.3443 28.9517 43.5898 28.8761 43.7684 28.7368C43.9489 28.5955 44.0356 28.4311 44.0286 28.2438C44.0229 28.0924 43.9652 27.9675 43.8554 27.8693C43.7455 27.7692 43.5798 27.6977 43.3583 27.6548L42.6252 27.5117C42.2223 27.432 41.9235 27.2963 41.7287 27.1046C41.5357 26.9109 41.4336 26.6636 41.4223 26.3627C41.4131 26.1166 41.474 25.8964 41.6051 25.702C41.7381 25.5074 41.9227 25.3518 42.159 25.2349C42.3973 25.1179 42.6697 25.0537 42.9763 25.0422C43.4078 25.0261 43.7501 25.108 44.0032 25.2881C44.2582 25.4681 44.4436 25.7113 44.5593 26.0178ZM47.6057 29.3835C47.1855 29.3992 46.8196 29.32 46.5079 29.146C46.1981 28.9699 45.9546 28.7175 45.7774 28.3887C45.602 28.0579 45.506 27.6692 45.4893 27.2225C45.4725 26.7758 45.5392 26.3791 45.6892 26.0324C45.841 25.6836 46.0601 25.4082 46.3463 25.2061C46.6343 25.002 46.9751 24.8926 47.3688 24.8778C47.5959 24.8693 47.8216 24.8988 48.0459 24.9662C48.2701 25.0336 48.4763 25.1491 48.6644 25.3126C48.8524 25.4743 49.0055 25.6922 49.1238 25.9664C49.2421 26.2405 49.3089 26.5811 49.3241 26.988L49.3347 27.2719L45.9734 27.3977L45.9517 26.8186L48.6317 26.7182C48.6225 26.4722 48.5651 26.2545 48.4594 26.0651C48.3557 25.8757 48.2118 25.7285 48.0278 25.6236C47.8457 25.5186 47.6336 25.4706 47.3913 25.4797C47.1245 25.4897 46.896 25.5646 46.7061 25.7043C46.5179 25.8421 46.3757 26.018 46.2795 26.232C46.1832 26.446 46.1396 26.6732 46.1486 26.9135L46.1631 27.2996C46.1754 27.6289 46.2426 27.906 46.3648 28.1307C46.4887 28.3535 46.6551 28.5207 46.864 28.6323C47.0728 28.742 47.3125 28.7918 47.5831 28.7816C47.7592 28.775 47.9172 28.7445 48.0573 28.69C48.1992 28.6335 48.3204 28.5531 48.4207 28.4489C48.521 28.3428 48.5967 28.213 48.6478 28.0595L49.3019 28.217C49.2419 28.439 49.1347 28.6364 48.98 28.8089C48.8253 28.9796 48.6314 29.1158 48.3983 29.2174C48.1651 29.3171 47.9009 29.3724 47.6057 29.3835Z" fill="#664D28"/>
<path d="M39.5672 64.965C40.0416 64.8587 40.5124 65.157 40.6187 65.6314V65.6314C40.7281 66.1192 40.4097 66.6001 39.9179 66.6899L19.1445 70.4825C18.9026 70.5267 18.669 70.372 18.6153 70.1321V70.1321C18.5599 69.8853 18.7152 69.6403 18.962 69.5849L39.5672 64.965Z" fill="#FFC164"/>
<path d="M62.3208 62.205C62.5551 62.1348 62.8019 62.2678 62.8721 62.5021V62.5021C62.9437 62.741 62.8039 62.9919 62.5631 63.0568L47.6001 67.0904C47.4811 67.1225 47.3582 67.054 47.3228 66.9359V66.9359C47.2867 66.8155 47.3551 66.6886 47.4755 66.6525L62.3208 62.205Z" fill="#FFC164"/>
<path d="M68.8143 61.6202C68.8143 61.3769 69.0115 61.1797 69.2548 61.1797V61.1797C69.5047 61.1797 69.7045 61.3874 69.6949 61.6371L69.2719 72.6363C69.2672 72.7591 69.1662 72.8563 69.0432 72.8563V72.8563C68.9168 72.8563 68.8143 72.7539 68.8143 72.6275V61.6202Z" fill="#FFC164"/>
<path d="M42.7217 63.7112C42.3344 63.9904 41.7942 63.9027 41.515 63.5155V63.5155C41.2209 63.1075 41.3358 62.5355 41.7648 62.2728L50.7934 56.7447C51.0013 56.6174 51.2722 56.6718 51.4147 56.8696V56.8696C51.5653 57.0784 51.518 57.3696 51.3093 57.5201L42.7217 63.7112Z" fill="#FFC164"/>
<path d="M55.6383 71.141C55.8766 71.0962 56.106 71.2531 56.1507 71.4913V71.4913C56.1969 71.7372 56.0285 71.9719 55.7808 72.0069L46.6596 73.2949C46.538 73.3121 46.4244 73.2306 46.4017 73.1099V73.1099C46.3783 72.9853 46.4604 72.8652 46.585 72.8418L55.6383 71.141Z" fill="#FFC164"/>
<path d="M39.4141 69.3278C39.1606 69.3035 38.9748 69.0783 38.9991 68.8248V68.8248C39.0241 68.5647 39.26 68.3773 39.519 68.4118L51.4622 70.003C51.5898 70.02 51.681 70.1349 51.6687 70.263V70.263C51.6561 70.3945 51.5393 70.4908 51.4078 70.4782L39.4141 69.3278Z" fill="#FFC164"/>
<path d="M65.1936 66.6326C65.3944 66.4979 65.6665 66.5515 65.8012 66.7523V66.7523C65.9407 66.9603 65.8777 67.2427 65.663 67.3716L58.5359 71.6526C58.4307 71.7157 58.2946 71.6853 58.2262 71.5835V71.5835C58.1554 71.4779 58.1836 71.3349 58.2892 71.2641L65.1936 66.6326Z" fill="#FFC164"/>
<path d="M27.6061 59.8024C28.0336 59.5709 28.5678 59.7297 28.7993 60.1572V60.1572C29.0374 60.5968 28.862 61.1462 28.4132 61.3666L9.4575 70.6724C9.2368 70.7808 8.96992 70.6956 8.85283 70.4794V70.4794C8.73235 70.2569 8.81503 69.9789 9.03749 69.8584L27.6061 59.8024Z" fill="#FFC164"/>
</svg>
