<svg width="146" height="105" viewBox="0 0 146 105" fill="none" xmlns="http://www.w3.org/2000/svg">
<path d="M113.174 27.3549C127.098 65.2484 104.642 75.4424 76.1661 85.9064C47.6898 96.3704 18.0895 87.1215 10.0519 65.2484C2.01433 43.3753 33.1363 25.7172 61.6126 15.2532C90.0889 4.78921 105.136 5.4818 113.174 27.3549Z" fill="#FFE296"/>
<path d="M57.2507 12.1874C57.4055 12.1874 57.8231 12.2569 58.5362 12.4212C59.2253 12.58 60.1378 12.814 61.2435 13.1136C63.454 13.7125 66.4207 14.569 69.8846 15.5981C76.8115 17.656 85.715 20.4003 94.5091 23.1453C103.303 25.8901 111.985 28.635 118.469 30.6937C121.711 31.7231 124.404 32.5808 126.286 33.1813C127.226 33.4815 127.965 33.7174 128.468 33.8782L128.769 33.9746L123.955 49.7876L123.645 49.6987C123.135 49.552 122.385 49.3366 121.431 49.0618C119.521 48.5121 116.791 47.7246 113.506 46.7734C106.937 44.8709 98.153 42.3135 89.2916 39.6937C80.4297 37.0737 71.4927 34.3919 64.6171 32.2405C61.1788 31.1647 58.2596 30.2225 56.1243 29.4876C55.056 29.12 54.1888 28.8059 53.5528 28.554C53.2345 28.4279 52.9794 28.3194 52.7883 28.2294C52.5846 28.1334 52.4903 28.0749 52.4639 28.0535C51.4146 27.2073 51.2161 26.1188 51.4109 24.767C51.5095 24.0826 51.7073 23.3527 51.9382 22.579C51.9986 22.3763 52.0616 22.17 52.1253 21.9611C52.3012 21.3844 52.4831 20.7884 52.6344 20.1982C52.7615 19.7021 52.8802 19.199 52.9985 18.6982C53.3356 17.2698 53.6683 15.8603 54.1785 14.6877C54.5182 13.9072 54.9181 13.2814 55.4112 12.8531C55.8923 12.435 56.4812 12.1874 57.2507 12.1874Z" fill="#BF7216" stroke="black"/>
<path d="M40.2508 14.0695C41.5246 9.6113 49.2734 13.8042 52.9886 16.4579L51.3964 21.2346C47.1504 20.7039 38.977 18.5278 40.2508 14.0695Z" fill="#BF7216" stroke="black"/>
<path d="M133.118 44.1755C132.576 46.3721 131.421 48.1771 130.015 49.3259C128.609 50.4746 126.98 50.9498 125.446 50.5715C123.913 50.1932 122.692 49.0148 121.981 47.3439C121.271 45.6728 121.088 43.5378 121.63 41.3411C122.172 39.1445 123.327 37.3395 124.733 36.1907C126.139 35.042 127.768 34.5668 129.302 34.9451C130.835 35.3234 132.056 36.5018 132.767 38.1727C133.477 39.8438 133.66 41.9789 133.118 44.1755Z" fill="#BF7216" stroke="black"/>
<path d="M134.526 42.367C132.538 41.7295 129.969 41.0388 128.933 40.7732L127.69 45.5548C129.969 46.086 135.148 47.4674 137.634 48.7425C140.12 50.0176 143.227 51.1333 144.47 49.5394C145.397 48.3514 145.699 45.5425 143.849 43.9609C141.984 42.367 137.012 43.164 134.526 42.367Z" fill="#BF7216" stroke="black"/>
<path d="M59.2241 75.7579C63.7354 77.0848 79.127 77.3501 95.0492 58.2434" stroke="#BF7216" stroke-linecap="round"/>
</svg>
