<svg width="105" height="80" viewBox="0 0 105 80" fill="none" xmlns="http://www.w3.org/2000/svg">
<path d="M1.45339 58.6043L8.45339 38.1043C10.9534 30.7828 89.4534 35.1043 92.9534 34.6043C96.4534 34.1043 104.953 58.6043 104.453 63.6043C104.053 67.6043 97.9534 68.9376 94.9534 69.1043C71.62 69.6043 22.2534 70.3043 11.4534 69.1043C0.653393 67.9043 0.286726 61.6043 1.45339 58.6043Z" fill="#D0D6D8" stroke="black"/>
<path d="M17.4534 77.1042C15.9534 75.6042 14.9534 69.6042 14.9534 69.6042L30.4534 70.1042C30.4534 70.1042 30.1239 75.6042 28.4534 77.1042C26.7828 78.6042 18.9534 78.6042 17.4534 77.1042Z" fill="#D0D6D8" stroke="black" stroke-linejoin="round"/>
<path d="M49.9534 77.6042C48.4534 76.1042 47.4534 70.1042 47.4534 70.1042H55.4534H63.4534C63.4534 70.1042 62.6239 76.1042 60.9534 77.6042C59.2828 79.1042 51.4534 79.1042 49.9534 77.6042Z" fill="#D0D6D8" stroke="black" stroke-linejoin="round"/>
<path d="M78.9534 76.6042C77.4534 75.1042 76.4534 69.6042 76.4534 69.6042L92.4534 69.1042C92.4534 69.1042 91.6239 75.1042 89.9534 76.6042C88.2828 78.1042 80.4534 78.1042 78.9534 76.6042Z" fill="#D0D6D8" stroke="black" stroke-linejoin="round"/>
<path d="M16.4534 33.6043C4.99911 33.6043 3.45336 22.6043 3.95336 18.6043C15.9534 14.6043 97.9533 17.1043 102.953 18.6043C106.953 19.8043 98.7867 29.1042 92.9534 33.6042C92.9534 34.1042 30.4534 33.6043 16.4534 33.6043Z" fill="#D0D6D8"/>
<path d="M92.9534 33.6042C92.9534 34.1042 30.4534 33.6043 16.4534 33.6043C4.99911 33.6043 3.45336 22.6043 3.95336 18.6043C15.9534 14.6043 97.9533 17.1043 102.953 18.6043C106.953 19.8043 98.7867 29.1042 92.9534 33.6042ZM92.9534 33.6042C94.5534 33.6042 91.9534 33.6042 92.9534 33.6042Z" stroke="black"/>
<path d="M13.9534 2.1043C9.55337 4.1043 5.12004 13.9376 3.95337 18.6042C24.2867 17.1043 72.5534 15.0043 102.953 18.6043C94.1534 1.80435 89.4534 2.15905 87.9534 2.1043C65.12 1.27097 18.3534 0.104303 13.9534 2.1043Z" fill="#D0D6D8" stroke="black"/>
<path d="M31.9534 42.1042C31.9534 43.418 31.6874 44.3862 31.2418 45.1094C30.7982 45.8294 30.1521 46.3467 29.3202 46.7189C27.6228 47.4784 25.2297 47.6042 22.4534 47.6042C19.6771 47.6042 17.2839 47.4784 15.5865 46.7189C14.7547 46.3467 14.1085 45.8294 13.6649 45.1094C13.2194 44.3862 12.9534 43.418 12.9534 42.1042C12.9534 36.8575 17.2067 32.6042 22.4534 32.6042C27.7001 32.6042 31.9534 36.8575 31.9534 42.1042Z" fill="#E6C3A6" stroke="black"/>
<path d="M31.9534 42.1042C31.9534 43.418 31.6874 44.3862 31.2418 45.1094C30.7982 45.8294 30.1521 46.3467 29.3202 46.7189C27.6228 47.4784 25.2297 47.6042 22.4534 47.6042C19.6771 47.6042 17.2839 47.4784 15.5865 46.7189C14.7547 46.3467 14.1085 45.8294 13.6649 45.1094C13.2194 44.3862 12.9534 43.418 12.9534 42.1042C12.9534 36.8575 17.2067 32.6042 22.4534 32.6042C27.7001 32.6042 31.9534 36.8575 31.9534 42.1042Z" fill="#E6C3A6" stroke="black"/>
<path d="M22.4534 36.6042C21.12 35.9375 17.4534 37.1042 16.9534 40.6042" stroke="black" stroke-linejoin="round"/>
<path d="M63.9534 42.1042C63.9534 43.418 63.6874 44.3862 63.2418 45.1094C62.7982 45.8294 62.1521 46.3467 61.3202 46.7189C59.6228 47.4784 57.2297 47.6042 54.4534 47.6042C51.6771 47.6042 49.2839 47.4784 47.5865 46.7189C46.7547 46.3467 46.1085 45.8294 45.6649 45.1094C45.2194 44.3862 44.9534 43.418 44.9534 42.1042C44.9534 36.8575 49.2067 32.6042 54.4534 32.6042C59.7001 32.6042 63.9534 36.8575 63.9534 42.1042Z" fill="#E6C3A6" stroke="black"/>
<path d="M54.4534 36.6042C53.12 35.9375 49.4534 37.1042 48.9534 40.6042" stroke="black" stroke-linejoin="round"/>
<path d="M31.9534 56.1042C31.9534 57.418 31.6874 58.3862 31.2418 59.1094C30.7982 59.8294 30.1521 60.3467 29.3202 60.7189C27.6228 61.4784 25.2297 61.6042 22.4534 61.6042C19.6771 61.6042 17.2839 61.4784 15.5865 60.7189C14.7547 60.3467 14.1085 59.8294 13.6649 59.1094C13.2194 58.3862 12.9534 57.418 12.9534 56.1042C12.9534 50.8575 17.2067 46.6042 22.4534 46.6042C27.7001 46.6042 31.9534 50.8575 31.9534 56.1042Z" fill="#E6C3A6" stroke="black"/>
<path d="M22.4534 50.6042C21.12 49.9375 17.4534 51.1042 16.9534 54.6042" stroke="black" stroke-linejoin="round"/>
<path d="M93.9534 58.6042C93.9534 60.1507 92.8894 61.64 90.9772 62.77C89.0761 63.8933 86.4172 64.6042 83.4534 64.6042C80.4895 64.6042 77.8306 63.8933 75.9296 62.77C74.0173 61.64 72.9534 60.1507 72.9534 58.6042C72.9534 57.0578 74.0173 55.5685 75.9296 54.4385C77.8306 53.3152 80.4895 52.6042 83.4534 52.6042C86.4172 52.6042 89.0761 53.3152 90.9772 54.4385C92.8894 55.5685 93.9534 57.0578 93.9534 58.6042Z" fill="#D0D6D8" stroke="black"/>
<path d="M64.9534 58.6042C64.9534 60.1507 63.8894 61.64 61.9772 62.77C60.0761 63.8933 57.4172 64.6042 54.4534 64.6042C51.4895 64.6042 48.8306 63.8933 46.9296 62.77C45.0173 61.64 43.9534 60.1507 43.9534 58.6042C43.9534 57.0578 45.0173 55.5685 46.9296 54.4385C48.8306 53.3152 51.4895 52.6042 54.4534 52.6042C57.4172 52.6042 60.0761 53.3152 61.9772 54.4385C63.8894 55.5685 64.9534 57.0578 64.9534 58.6042Z" fill="#D0D6D8" stroke="black"/>
<path d="M93.9534 41.6042C93.9534 43.1507 92.8894 44.64 90.9772 45.77C89.0761 46.8933 86.4172 47.6042 83.4534 47.6042C80.4895 47.6042 77.8306 46.8933 75.9296 45.77C74.0173 44.64 72.9534 43.1507 72.9534 41.6042C72.9534 40.0578 74.0173 38.5685 75.9296 37.4385C77.8306 36.3152 80.4895 35.6042 83.4534 35.6042C86.4172 35.6042 89.0761 36.3152 90.9772 37.4385C92.8894 38.5685 93.9534 40.0578 93.9534 41.6042Z" fill="#D0D6D8" stroke="black"/>
<path d="M77.9534 63.6042C79.7134 62.095 84.8774 59.9821 89.4534 63.6042" stroke="black" stroke-linejoin="round"/>
<path d="M48.9534 63.6042C50.7134 62.095 55.8774 59.9821 60.4534 63.6042" stroke="black" stroke-linejoin="round"/>
<path d="M77.9534 46.6042C79.7134 45.095 84.8774 42.9821 89.4534 46.6042" stroke="black" stroke-linejoin="round"/>
</svg>
