<svg width="80" height="70" viewBox="0 0 80 70" fill="none" xmlns="http://www.w3.org/2000/svg">
<path d="M42.2732 0.550906C39.0201 0.07811 38.1604 2.21644 37.4751 6.93157C36.7898 11.6467 37.7632 15.6913 39.6492 15.9654C41.5353 16.2395 43.6198 12.6394 44.3051 7.92423C44.9904 3.2091 45.5264 1.02371 42.2732 0.550906Z" fill="#6A942F"/>
<ellipse cx="17.6858" cy="40.236" rx="17.6858" ry="28.9011" fill="#FC751B"/>
<ellipse cx="38.3911" cy="40.236" rx="17.6858" ry="28.9011" fill="#FC751B"/>
<ellipse cx="61.6844" cy="41.0988" rx="17.6858" ry="28.9011" fill="#FC751B"/>
<path d="M22.7822 19.5346C23.7395 21.8241 21.1375 22.2382 18.527 24.3549C17.6039 25.1033 18.527 26.6361 16.6358 28.6968C14.4514 29.6101 13.8226 26.9023 11.9435 26.6361C9.78779 26.3307 6.48939 28.2919 5.7971 26.6361C4.50134 23.537 7.25318 19.4349 11.9435 17.4739C16.6338 15.5129 21.4865 16.4355 22.7822 19.5346Z" fill="#C87749"/>
<path d="M71.6058 40.6674C72.563 42.9569 73.7626 41.5301 72.8783 44.1974C75.9194 46.2751 72.8783 46.4786 70.9871 48.5393C68.8027 49.4526 68.1739 46.7448 66.2948 46.4786C64.1391 46.1733 60.8407 48.1344 60.1484 46.4786C58.8527 43.3795 61.6045 39.2775 66.2948 37.3164C70.9851 35.3554 72.4685 35.9224 71.6058 40.6674Z" fill="#C87749"/>
</svg>
