<svg width="80" height="80" viewBox="0 0 80 80" fill="none" xmlns="http://www.w3.org/2000/svg">
<rect width="80" height="80" rx="4" fill="#FDA409"/>
<rect x="6.15381" y="5.71729" width="66.1538" height="54.5738" rx="4" fill="#98480F"/>
<line x1="28.6666" y1="5.71729" x2="28.6666" y2="60.2911" stroke="#4A2604" stroke-width="4"/>
<line x1="51.2307" y1="5.71729" x2="51.2307" y2="60.2911" stroke="#4A2604" stroke-width="4"/>
<line x1="6.15381" y1="23.4678" x2="72.3077" y2="23.4678" stroke="#4A2604" stroke-width="4"/>
<line x1="6.15381" y1="42.6985" x2="72.3077" y2="42.6985" stroke="#4A2604" stroke-width="4"/>
<path d="M25.4506 68.3828H23.2731C23.2333 68.1011 23.1521 67.8509 23.0295 67.6321C22.9068 67.41 22.7494 67.2211 22.5572 67.0653C22.3649 66.9096 22.1429 66.7902 21.891 66.7074C21.6424 66.6245 21.3723 66.5831 21.0806 66.5831C20.5536 66.5831 20.0946 66.714 19.7035 66.9759C19.3124 67.2344 19.0091 67.6122 18.7937 68.1094C18.5782 68.6032 18.4705 69.2031 18.4705 69.9091C18.4705 70.6349 18.5782 71.2448 18.7937 71.7386C19.0124 72.2325 19.3174 72.6054 19.7085 72.8572C20.0996 73.1091 20.552 73.2351 21.0657 73.2351C21.354 73.2351 21.6209 73.197 21.8661 73.1207C22.1147 73.0445 22.3351 72.9335 22.5273 72.7876C22.7196 72.6385 22.8787 72.4579 23.0046 72.2457C23.1339 72.0336 23.2234 71.7917 23.2731 71.5199L25.4506 71.5298C25.3943 71.9972 25.2534 72.4479 25.0281 72.8821C24.806 73.313 24.506 73.6991 24.1282 74.0405C23.7537 74.3786 23.3062 74.647 22.7859 74.8459C22.2688 75.0414 21.6838 75.1392 21.0309 75.1392C20.1228 75.1392 19.3107 74.9337 18.5948 74.5227C17.8822 74.1117 17.3188 73.5168 16.9045 72.7379C16.4935 71.959 16.288 71.0161 16.288 69.9091C16.288 68.7988 16.4968 67.8542 16.9144 67.0753C17.332 66.2964 17.8988 65.7031 18.6147 65.2955C19.3306 64.8845 20.136 64.679 21.0309 64.679C21.6209 64.679 22.1677 64.7618 22.6715 64.9276C23.1786 65.0933 23.6277 65.3352 24.0188 65.6534C24.4099 65.9683 24.7281 66.3544 24.9734 66.8118C25.2219 67.2692 25.381 67.7929 25.4506 68.3828ZM33.2834 64.8182H35.4361V71.4304C35.4361 72.1728 35.2588 72.8224 34.9041 73.3793C34.5528 73.9361 34.0606 74.3703 33.4276 74.6818C32.7945 74.9901 32.0571 75.1442 31.2152 75.1442C30.37 75.1442 29.6309 74.9901 28.9979 74.6818C28.3648 74.3703 27.8726 73.9361 27.5213 73.3793C27.17 72.8224 26.9943 72.1728 26.9943 71.4304V64.8182H29.147V71.2464C29.147 71.6342 29.2315 71.9789 29.4006 72.2805C29.5729 72.5821 29.8149 72.8191 30.1264 72.9915C30.438 73.1638 30.8009 73.25 31.2152 73.25C31.6328 73.25 31.9957 73.1638 32.304 72.9915C32.6155 72.8191 32.8558 72.5821 33.0249 72.2805C33.1972 71.9789 33.2834 71.6342 33.2834 71.2464V64.8182ZM37.2072 75V64.8182H41.2243C41.9932 64.8182 42.6494 64.9557 43.193 65.2308C43.7399 65.5026 44.1558 65.8887 44.4409 66.3892C44.7292 66.8864 44.8734 67.4714 44.8734 68.1442C44.8734 68.8203 44.7276 69.402 44.4359 69.8892C44.1442 70.3731 43.7217 70.7443 43.1681 71.0028C42.618 71.2614 41.9518 71.3906 41.1696 71.3906H38.4799V69.6605H40.8216C41.2325 69.6605 41.5739 69.6042 41.8457 69.4915C42.1175 69.3788 42.3197 69.2098 42.4522 68.9844C42.5881 68.759 42.6561 68.4789 42.6561 68.1442C42.6561 67.8061 42.5881 67.5211 42.4522 67.2891C42.3197 67.0571 42.1158 66.8814 41.8407 66.7621C41.569 66.6394 41.2259 66.5781 40.8116 66.5781H39.3599V75H37.2072ZM42.7058 70.3665L45.2363 75H42.8599L40.3841 70.3665H42.7058ZM46.3947 75V64.8182H50.4118C51.1807 64.8182 51.8369 64.9557 52.3805 65.2308C52.9274 65.5026 53.3433 65.8887 53.6284 66.3892C53.9167 66.8864 54.0609 67.4714 54.0609 68.1442C54.0609 68.8203 53.9151 69.402 53.6234 69.8892C53.3317 70.3731 52.9092 70.7443 52.3556 71.0028C51.8055 71.2614 51.1393 71.3906 50.3571 71.3906H47.6674V69.6605H50.0091C50.42 69.6605 50.7614 69.6042 51.0332 69.4915C51.305 69.3788 51.5072 69.2098 51.6397 68.9844C51.7756 68.759 51.8436 68.4789 51.8436 68.1442C51.8436 67.8061 51.7756 67.5211 51.6397 67.2891C51.5072 67.0571 51.3033 66.8814 51.0282 66.7621C50.7565 66.6394 50.4134 66.5781 49.9991 66.5781H48.5474V75H46.3947ZM51.8933 70.3665L54.4238 75H52.0474L49.5716 70.3665H51.8933ZM54.5618 64.8182H56.973L59.2947 69.2031H59.3942L61.7159 64.8182H64.1271L60.4134 71.4006V75H58.2756V71.4006L54.5618 64.8182Z" fill="#0D0D0D"/>
</svg>
