<svg width="64" height="80" viewBox="0 0 64 80" fill="none" xmlns="http://www.w3.org/2000/svg">
<path d="M0.363235 4.33406C0.16773 2.00132 2.00835 0 4.34926 0H59.7163C62.0332 0 63.8655 1.96221 63.707 4.27364L58.7698 76.2736C58.6259 78.3716 56.8821 80 54.7792 80H10.3835C8.30392 80 6.57121 78.4064 6.39752 76.3341L0.363235 4.33406Z" fill="#DBEEF9"/>
<path d="M10.2654 15.2494C10.1216 12.9466 11.9504 11 14.2576 11H48.7989C51.085 11 52.9061 12.9127 52.7941 15.1961L50.193 68.1961C50.0885 70.3264 48.3307 72 46.1978 72H17.5681C15.4558 72 13.7075 70.3576 13.5759 68.2494L10.2654 15.2494Z" fill="#FCFEFF"/>
<path d="M15.4667 43.8182H18.1215L20.9255 50.6591H21.0448L23.8488 43.8182H26.5036V54H24.4155V47.3729H24.331L21.6961 53.9503H20.2742L17.6393 47.348H17.5547V54H15.4667V43.8182ZM30.4299 43.8182V54H28.2772V43.8182H30.4299ZM32.201 54V43.8182H34.3537V52.2251H38.7188V54H32.201ZM40.1444 54V43.8182H42.2971V48.3075H42.4313L46.0954 43.8182H48.6757L44.8972 48.3771L48.7204 54H46.1451L43.3561 49.8139L42.2971 51.1065V54H40.1444Z" fill="#576F69"/>
</svg>
