<svg width="213" height="461" viewBox="0 0 213 461" fill="none" xmlns="http://www.w3.org/2000/svg">
<path d="M46.5325 408.816C46.0325 398.816 46.5326 292.316 46.5326 292.316L170.033 282.316C173.394 327.742 169.033 386.316 170.033 394.316C171.032 402.316 172.032 418.316 170.033 420.316C168.033 422.316 146.964 429.191 142.533 420.316C138.101 411.442 142.533 319.316 139.533 316.316C136.532 313.316 83.5325 315.816 79.0326 319.316C74.5327 322.816 82.0325 417.316 79.3178 423.316C76.6032 429.316 52.3178 432.316 49.3178 427.316C46.3179 422.316 47.0325 418.816 46.5325 408.816Z" fill="#302B88"/>
<path d="M31.0325 175.816C15.0004 165.606 5.53269 150.316 2.53255 136.316C-0.467585 122.316 -2.46768 59.8159 31.0325 25.316C64.5328 -9.1839 136.533 -3.68401 161.533 21.316C186.532 46.316 194.376 70.268 187.533 111.316C183.809 131.404 181.221 141.15 176.033 156.816C207.697 173.748 208.88 207 211.38 215C213.88 223 206.38 238.029 198.88 239.5C190.81 241.082 184.142 240.812 178.576 239.465C179.262 261.861 179.555 286.352 179.033 291.316C178.032 300.816 178.282 303.316 172.033 306.816C165.783 310.316 95.7593 320.851 44.5327 312.816C41.3252 293.027 41.0329 268.316 42.0327 253.816C42.2275 250.99 42.1507 247.62 41.9007 244.026C38.1569 247.115 35.1333 249.257 33.3805 250C24.3804 253.816 17.3804 250 12.3805 245C12.3805 245 4.38021 234.5 6.38037 220C8.38053 205.5 17.8648 194.438 31.0325 175.816Z" fill="#AC2626" stroke="#AC2626"/>
<path d="M26.0325 88.3164C24.5325 107.816 34.5325 114.816 34.5325 114.816C43.7041 136.007 48.7272 147.521 67.5325 155.816C82.1994 162.286 97.5324 159.18 110.532 156.816C123.532 154.453 151.883 131.339 159.532 104.316C162.91 91.901 162.953 85.8096 159.532 76.3164C146.823 48.0125 116.532 29.3163 108.532 26.8164C100.532 24.3165 85.0325 21.8164 71.0325 29.3164C57.0325 36.8164 27.5325 68.8164 26.0325 88.3164Z" fill="#DEAC6B" stroke="#DEAC6B"/>
<path d="M162.38 142.102C162.38 148.729 155.202 160.102 151.88 160.102C148.559 160.102 142.553 159.944 140.38 157.263C136.928 153.002 133.38 151.308 133.38 148.002C133.38 141.375 140.532 130.963 148.88 129.191C156.032 127.674 162.38 135.474 162.38 142.102Z" fill="#DEAC6B"/>
<path d="M25.5325 89.8164L39.5325 91.8164C38.7997 82.9822 39.5325 75.3164 41.5325 68.8164C43.5325 62.3164 68.5325 35.3164 76.5325 30.8164C84.5325 26.3164 91.5409 25.9002 99.8452 29.1273C114.689 36.4351 125.658 44.4382 132.845 53.1273C140.032 61.8164 144.572 73.4701 146.032 87.3164L161.032 85.3164C162.425 74.9247 161.823 66.9677 154.532 54.8164C147.242 42.6652 120.532 27.3164 110.532 23.3164C100.532 19.3164 93.6719 19.0207 84.0325 21.3164C74.393 23.6122 45.0325 39.8164 37.0325 50.8164C29.0325 61.8165 26.19 74.1984 25.5325 89.8164Z" fill="#3D2609" stroke="#3D2609"/>
<path d="M90.8647 42.5419C91.9146 47.1782 94.3648 50.7776 95.5284 54.0419C96.6919 57.3061 79.7921 49.8175 77.3638 40.0419C75.0284 34.5419 75.7062 24.7865 79.8674 20.6642C84.0286 16.542 89.9589 17.5668 94.0285 19.5419C99.3298 22.1147 102.499 29.2041 101.367 33.1641C99.3674 40.1641 105.028 42.0418 106.028 44.0419C107.028 46.042 96.7956 45.3526 90.8647 42.5419Z" fill="#3D2609" stroke="#3D2609"/>
<path d="M40.0325 101.387C40.0325 106.598 38.1207 115.816 33.1503 115.816C28.1799 115.816 22.5625 113.042 20.4448 102.497C17.8271 89.4639 28.3857 86.9029 32.0917 88.0682C37.3856 89.7331 40.0325 96.1768 40.0325 101.387Z" fill="#DE9F6B"/>
<path d="M152.032 89.3873C152.032 94.5977 153.944 103.816 158.915 103.816C163.885 103.816 169.502 101.042 171.62 90.4973C174.238 77.4639 163.679 74.9029 159.973 76.0682C154.679 77.7331 152.032 84.1768 152.032 89.3873Z" fill="#DE9F6B"/>
<path d="M80.5325 86.8164C80.5325 102.557 78.5202 116.381 65.5325 115.816C54.0325 115.316 50.0325 103.057 50.0325 87.3164C50.0325 71.5763 56.5325 59.3164 66.5325 59.3164C78.0325 59.3164 80.5325 71.0763 80.5325 86.8164Z" fill="#ECDDCA"/>
<path d="M104.533 84.3164C104.533 68.5763 106.045 55.2517 119.032 55.8164C130.532 56.3164 135.532 70.0763 135.532 85.8164C135.532 101.557 130.033 112.816 120.033 112.816C108.533 112.816 104.533 100.057 104.533 84.3164Z" fill="#ECDDCA"/>
<path d="M77.0325 84.9273C77.0325 93.0039 75.9109 100.098 68.6718 99.8078C62.262 99.5513 60.0325 93.2604 60.0325 85.1838C60.0325 77.1072 63.6554 70.8164 69.2292 70.8164C75.639 70.8164 77.0325 76.8507 77.0325 84.9273Z" fill="#1C1B19"/>
<path d="M126.393 82.8894C126.393 90.966 123.772 98.6062 116.532 98.3164C110.123 98.0598 107.532 90.966 107.532 82.8894C107.532 74.8128 110.959 68.3164 116.532 68.3164C122.942 68.3164 126.393 74.8128 126.393 82.8894Z" fill="#1C1B19"/>
<path d="M119.15 90.6015C118.637 92.4823 117.868 94.0475 115.832 93.4199C114.03 92.8642 113.797 91.2267 114.31 89.3458C114.822 87.465 116.25 86.2803 117.832 86.7116C119.65 87.2076 119.663 88.7206 119.15 90.6015Z" fill="#ECDDCA"/>
<path d="M119.15 90.6015C118.637 92.4823 117.868 94.0475 115.832 93.4199C114.03 92.8642 113.797 91.2267 114.31 89.3458C114.822 87.465 116.25 86.2803 117.832 86.7116C119.65 87.2076 119.663 88.7206 119.15 90.6015Z" fill="#ECDDCA"/>
<path d="M71.7249 91.3855C71.9396 93.3231 71.8002 95.0613 69.6763 95.2262C67.7957 95.3722 66.9768 93.9351 66.7622 91.9975C66.5475 90.0598 67.4395 88.4332 69.0688 88.2528C70.9426 88.0452 71.5103 89.4478 71.7249 91.3855Z" fill="#ECDDCA"/>
<path d="M71.7249 91.3855C71.9396 93.3231 71.8002 95.0613 69.6763 95.2262C67.7957 95.3722 66.9768 93.9351 66.7622 91.9975C66.5475 90.0598 67.4395 88.4332 69.0688 88.2528C70.9426 88.0452 71.5103 89.4478 71.7249 91.3855Z" fill="#ECDDCA"/>
<path d="M81.0325 444.817C81.0325 454.816 81.0325 458.316 49.5325 459.816C25.3061 460.97 21.5325 461.316 20.5325 451.316C20.5325 444.817 20.5325 435.316 50.5325 435.316C73.5325 435.316 81.0325 438.741 81.0325 444.817Z" fill="#1D1A4B"/>
<path d="M206.032 442.29C211.032 457.248 206.032 455.752 171.148 457.248C144.319 458.398 140.14 458.743 139.032 448.772C140.032 436.316 139.12 435.221 172.256 432.816C186.032 431.817 200.929 427.022 206.032 442.29Z" fill="#1D1A4B"/>
<path d="M100.032 115.816C100.032 118.578 97.1223 120.816 93.5325 120.816C89.9426 120.816 87.0325 118.578 87.0325 115.816C87.0325 113.055 90.9426 110.816 94.5325 110.816C98.1223 110.816 100.032 113.055 100.032 115.816Z" fill="#EC945D"/>
<path d="M83.5328 182.88C83.9662 179.855 89.5992 183.888 89.5992 187.417C89.5992 190.946 90.0325 208.589 90.0325 211.11C90.0325 213.63 84.3994 213.126 83.5328 211.11C82.6662 209.094 83.0994 185.904 83.5328 182.88Z" fill="#ECDCC9"/>
<path d="M115.533 182.88C115.966 179.855 121.599 183.888 121.599 187.417C121.599 190.946 122.032 208.589 122.032 211.11C122.032 213.63 116.399 213.126 115.533 211.11C114.666 209.094 115.099 185.904 115.533 182.88Z" fill="#ECDCC9"/>
<path d="M80.3804 128.143C88.0785 133.509 94.3988 130.763 104.88 128.143M104.068 123C104.409 127.422 105.487 129.355 108.88 132" stroke="black" stroke-width="2" stroke-linecap="round" stroke-linejoin="round"/>
<path d="M76.3804 194.207C76.3804 200.834 71.0078 208.207 64.3804 208.207C57.753 208.207 52.3804 200.834 52.3804 194.207C52.3804 187.579 56.0322 182.96 64.3804 181.189C71.5322 179.672 76.3804 187.579 76.3804 194.207Z" fill="#DEAC6B"/>
<path d="M113.38 155.5C113.38 149.533 110.114 143.81 104.301 139.59C98.4871 135.371 90.6021 133 82.3804 133C74.1587 133 66.2737 135.371 60.4601 139.59C54.6464 143.81 51.3804 149.533 51.3804 155.5L82.3804 155.5H113.38Z" fill="#FDA409"/>
<rect x="112.38" y="143.143" width="67.8297" height="3.75997" transform="rotate(-14.6408 112.38 143.143)" fill="#BFBBBB"/>
<path d="M119.38 141.381C119.395 143.153 119.062 144.912 118.398 146.556C117.734 148.2 116.753 149.697 115.51 150.961C114.268 152.226 112.788 153.233 111.157 153.926C109.525 154.619 107.772 154.984 106 154.999C104.227 155.015 102.468 154.682 100.824 154.018C99.1807 153.354 97.6837 152.372 96.4191 151.13C95.1545 149.888 94.1469 148.408 93.454 146.776C92.7612 145.144 92.3965 143.392 92.3808 141.619L105.88 141.5L119.38 141.381Z" fill="#BFBBBB"/>
<rect x="66.3804" y="165" width="32" height="32" fill="#BFBBBB"/>
<path d="M124.38 147C124.38 152.516 123.294 157.977 121.183 163.073C119.073 168.168 115.979 172.798 112.079 176.698C108.179 180.599 103.549 183.692 98.4531 185.803C93.3574 187.914 87.8959 189 82.3804 189C76.8648 189 71.4033 187.914 66.3077 185.803C61.212 183.692 56.5819 180.599 52.6819 176.698C48.7818 172.798 45.6881 168.168 43.5774 163.073C41.4667 157.977 40.3804 152.516 40.3804 147L82.3804 147H124.38Z" fill="#D9D9D9"/>
</svg>
