<svg width="315" height="461" viewBox="0 0 315 461" fill="none" xmlns="http://www.w3.org/2000/svg">
<path d="M90.1519 408.816C89.6519 398.816 90.1519 292.316 90.1519 292.316L213.652 282.316C217.014 327.742 212.652 386.316 213.652 394.316C214.652 402.316 215.652 418.316 213.652 420.316C211.652 422.316 190.584 429.191 186.152 420.316C181.72 411.441 186.152 319.316 183.152 316.316C180.152 313.316 127.152 315.816 122.652 319.316C118.152 322.816 125.652 417.316 122.937 423.316C120.223 429.316 95.9372 432.316 92.9372 427.316C89.9373 422.316 90.6519 418.816 90.1519 408.816Z" fill="#302B88"/>
<path d="M74.6519 175.816C58.6197 165.606 49.152 150.316 46.1519 136.316C43.1518 122.316 41.1517 59.8159 74.6519 25.316C108.152 -9.1839 180.152 -3.68401 205.152 21.316C230.152 46.316 237.995 70.268 231.152 111.316C227.429 131.404 224.84 141.15 219.652 156.816C251.317 173.748 262.612 186.287 286.652 206.816C291.913 210.514 292.917 214.054 292.152 222.316C291.343 227.865 290.055 230.44 286.652 234.316C281.186 238.321 278.118 238.228 272.652 234.316C266.677 228.658 261.652 225.316 255.652 222.316C250.11 219.545 222.376 201.841 219.759 199.945C221.734 203.681 223.635 281.985 222.652 291.316C221.652 300.816 221.902 303.316 215.652 306.816C209.402 310.316 139.379 320.851 88.1521 312.816C84.9446 293.027 84.6523 268.316 85.6521 253.816C86.6518 239.316 85.6521 211.816 85.6521 211.816C68.2946 232.479 57.991 242.836 39.1521 260.316C35.5254 264.459 30.1523 265.816 26.1521 264.316C22.1518 262.816 19.6519 261.316 15.6521 256.816C11.6522 252.316 12.1519 247.316 15.6521 241.316C15.6521 241.316 25.6521 223.816 35.1521 214.816C44.6521 205.816 61.4842 194.438 74.6519 175.816Z" fill="#AC2626" stroke="#AC2626"/>
<path d="M69.6519 88.3161C68.1519 107.816 78.1519 114.816 78.1519 114.816C87.3235 136.006 92.3465 147.521 111.152 155.816C125.819 162.286 141.152 159.18 154.152 156.816C167.152 154.453 195.502 131.339 203.152 104.316C206.529 91.9008 206.572 85.8093 203.152 76.3161C190.442 48.0122 160.152 29.316 152.152 26.8161C144.152 24.3162 128.652 21.8161 114.652 29.3161C100.652 36.8161 71.1519 68.8161 69.6519 88.3161Z" fill="#DEAC6B" stroke="#DEAC6B"/>
<path d="M24 272.834C24 279.461 18.6274 286.834 12 286.834C5.37258 286.834 0 279.461 0 272.834C0 266.206 3.65186 261.587 12 259.816C19.1519 258.299 24 266.206 24 272.834Z" fill="#DEAC6B"/>
<path d="M314.652 237.316C314.652 243.944 307.473 255.316 304.152 255.316C300.831 255.316 294.825 255.159 292.652 252.477C289.2 248.217 285.652 246.523 285.652 243.217C285.652 236.589 292.804 226.177 301.152 224.406C308.304 222.889 314.652 230.689 314.652 237.316Z" fill="#DEAC6B"/>
<path d="M69.1519 89.8162L83.1519 91.8162C82.4191 82.9819 83.1518 75.3162 85.1519 68.8162C87.1519 62.3162 112.152 35.3162 120.152 30.8162C128.152 26.3162 135.16 25.9 143.465 29.1271C158.309 36.4349 169.277 44.438 176.465 53.1271C183.652 61.8162 188.191 73.4699 189.652 87.3162L204.652 85.3162C206.044 74.9245 205.443 66.9675 198.152 54.8162C190.861 42.6649 164.152 27.3162 154.152 23.3162C144.152 19.3162 137.291 19.0205 127.652 21.3162C118.012 23.6119 88.6519 39.8162 80.6519 50.8162C72.6518 61.8162 69.8094 74.1981 69.1519 89.8162Z" fill="#3D2609" stroke="#3D2609"/>
<path d="M134.484 42.5416C135.534 47.1779 137.984 50.7774 139.148 54.0416C140.311 57.3059 123.411 49.8172 120.983 40.0416C118.648 34.5416 119.326 24.7863 123.487 20.664C127.648 16.5417 133.578 17.5665 137.648 19.5416C142.949 22.1145 146.118 29.2039 144.987 33.1639C142.987 40.1638 148.648 42.0416 149.648 44.0416C150.648 46.0417 140.415 45.3524 134.484 42.5416Z" fill="#3D2609" stroke="#3D2609"/>
<path d="M83.6519 101.387C83.6519 106.597 81.7401 115.816 76.7697 115.816C71.7992 115.816 66.1819 113.041 64.0641 102.497C61.4465 89.4636 72.0051 86.9027 75.711 88.068C81.005 89.7329 83.6519 96.1766 83.6519 101.387Z" fill="#DE9F6B"/>
<path d="M195.652 89.387C195.652 94.5975 197.564 103.816 202.534 103.816C207.504 103.816 213.122 101.041 215.24 90.497C217.857 77.4636 207.299 74.9027 203.593 76.068C198.299 77.7329 195.652 84.1766 195.652 89.387Z" fill="#DE9F6B"/>
<path d="M124.152 86.8162C124.152 102.556 122.14 116.381 109.152 115.816C97.6519 115.316 93.6519 103.056 93.6519 87.3162C93.6519 71.576 100.152 59.3162 110.152 59.3162C121.652 59.3162 124.152 71.076 124.152 86.8162Z" fill="#ECDDCA"/>
<path d="M148.152 84.3162C148.152 68.576 149.664 55.2515 162.652 55.8162C174.152 56.3162 179.152 70.076 179.152 85.8162C179.152 101.556 173.652 112.816 163.652 112.816C152.152 112.816 148.152 100.056 148.152 84.3162Z" fill="#ECDDCA"/>
<path d="M120.652 84.927C120.652 93.0036 119.53 100.097 112.291 99.8076C105.881 99.551 103.652 93.2602 103.652 85.1836C103.652 77.107 107.275 70.8162 112.849 70.8162C119.258 70.8162 120.652 76.8504 120.652 84.927Z" fill="#1C1B19"/>
<path d="M170.013 82.8892C170.013 90.9658 167.391 98.6059 160.152 98.3162C153.742 98.0596 151.152 90.9658 151.152 82.8892C151.152 74.8126 154.578 68.3162 160.152 68.3162C166.562 68.3162 170.013 74.8126 170.013 82.8892Z" fill="#1C1B19"/>
<path d="M162.421 77.4177C161.908 79.2985 161.14 80.8637 159.104 80.2361C157.301 79.6803 157.068 78.0428 157.581 76.162C158.094 74.2811 159.521 73.0965 161.103 73.5278C162.922 74.0238 162.934 75.5368 162.421 77.4177Z" fill="#ECDDCA"/>
<path d="M162.421 77.4177C161.908 79.2985 161.14 80.8637 159.104 80.2361C157.301 79.6803 157.068 78.0428 157.581 76.162C158.094 74.2811 159.521 73.0965 161.103 73.5278C162.922 74.0238 162.934 75.5368 162.421 77.4177Z" fill="#ECDDCA"/>
<path d="M114.996 79.2016C115.211 81.1393 115.072 82.8775 112.948 83.0424C111.067 83.1884 110.248 81.7513 110.034 79.8136C109.819 77.8759 110.711 76.2494 112.34 76.0689C114.214 75.8614 114.782 77.264 114.996 79.2016Z" fill="#ECDDCA"/>
<path d="M114.996 79.2016C115.211 81.1393 115.072 82.8775 112.948 83.0424C111.067 83.1884 110.248 81.7513 110.034 79.8136C109.819 77.8759 110.711 76.2494 112.34 76.0689C114.214 75.8614 114.782 77.264 114.996 79.2016Z" fill="#ECDDCA"/>
<path d="M124.652 444.816C124.652 454.816 124.652 458.316 93.1519 459.816C68.9254 460.97 65.1519 461.316 64.1519 451.316C64.1519 444.816 64.1519 435.316 94.1519 435.316C117.152 435.316 124.652 438.741 124.652 444.816Z" fill="#1D1A4B"/>
<path d="M249.652 442.29C254.652 457.248 249.652 455.752 214.768 457.247C187.938 458.398 183.759 458.743 182.652 448.771C183.652 436.316 182.739 435.221 215.875 432.816C229.652 431.816 244.548 427.022 249.652 442.29Z" fill="#1D1A4B"/>
<path d="M143.652 115.816C143.652 118.578 140.742 120.816 137.152 120.816C133.562 120.816 130.652 118.578 130.652 115.816C130.652 113.055 134.562 110.816 138.152 110.816C141.742 110.816 143.652 113.055 143.652 115.816Z" fill="#EC945D"/>
<path d="M146.652 135.316C146.652 138.078 143.652 141.816 138.152 141.816C132.652 141.816 130.652 138.078 130.652 135.316C130.652 131.316 134.562 127.316 138.152 127.316C141.742 127.316 146.652 128.816 146.652 135.316Z" fill="#8B2A2A"/>
<path d="M127.152 182.88C127.586 179.855 133.219 183.888 133.219 187.417C133.219 190.945 133.652 208.589 133.652 211.11C133.652 213.63 128.019 213.126 127.152 211.11C126.286 209.093 126.719 185.904 127.152 182.88Z" fill="#ECDCC9"/>
<path d="M159.152 182.88C159.586 179.855 165.219 183.888 165.219 187.417C165.219 190.945 165.652 208.589 165.652 211.11C165.652 213.63 160.019 213.126 159.152 211.11C158.286 209.093 158.719 185.904 159.152 182.88Z" fill="#ECDCC9"/>
</svg>
