<svg width="324" height="463" viewBox="0 0 324 463" fill="none" xmlns="http://www.w3.org/2000/svg">
<rect width="70.1436" height="24.9827" rx="4" transform="matrix(0.995937 -0.0900478 0.0994546 0.995042 71.042 438.141)" fill="#060606"/>
<rect width="68.663" height="25.552" rx="4" transform="matrix(0.760377 -0.649482 0.686543 0.727089 253.28 444.105)" fill="#060606"/>
<path fill-rule="evenodd" clip-rule="evenodd" d="M149.792 263.508C147.903 262.363 145.374 262.923 144.145 264.759L99.5226 331.371C99.1883 331.87 98.9845 332.413 98.9028 332.96C98.2276 333.704 97.8315 334.702 97.8711 335.786L100.411 405.291C100.492 407.498 102.347 409.229 104.555 409.156L125.364 408.468C127.572 408.395 129.297 406.546 129.216 404.339L127.113 346.802L171.121 281.106C172.351 279.27 171.816 276.854 169.927 275.709L149.792 263.508Z" fill="#060606"/>
<path fill-rule="evenodd" clip-rule="evenodd" d="M201.644 268.88C199.456 269.182 197.952 271.198 198.285 273.381L210.167 351.285C210.161 351.761 210.245 352.239 210.423 352.696C210.695 353.598 211.269 354.355 212.014 354.867L262.089 412.208C263.542 413.872 266.125 414.111 267.859 412.742L285.161 399.073C286.895 397.704 287.122 395.245 285.669 393.581L239.386 340.581L228.5 269.213C228.167 267.029 226.123 265.503 223.935 265.805L201.644 268.88Z" fill="#060606"/>
<rect width="58.9019" height="24.9827" rx="4" transform="matrix(0.995937 -0.0900478 0.0994546 0.995042 86.4858 404.813)" fill="#91B7CE"/>
<rect width="59.5731" height="25.5348" rx="4" transform="matrix(0.769013 -0.639234 0.676618 0.736334 244.014 409.682)" fill="#91B7CE"/>
<ellipse cx="186.871" cy="248.95" rx="57.1424" ry="49.2074" fill="#060606"/>
<path d="M233.203 215.166C231.658 182.116 232.431 127.033 165.25 98.3896C140.539 93.983 120.076 99.8586 107.335 107.937C94.5938 116.016 82.6248 140.253 88.0302 157.145C112.74 166.692 142.856 200.477 145.173 223.979C159.072 228.385 216.987 225.448 233.203 215.166Z" fill="#6F5F5A"/>
<path d="M160.668 134.5C152.695 135.681 150.668 139.5 150.668 148C150.668 157.126 209.795 203.404 218.795 181.404C226.218 163.259 210.276 124.82 199.5 114.5L199.32 114.327C190.193 105.585 183.895 99.5533 168.006 99.5534C167.709 130.262 196.168 150 188.168 145C180.168 140 174.168 132.5 160.668 134.5Z" fill="#907E78"/>
<path d="M42.0817 210.271C46.8545 162.582 68.2279 145.509 68.2279 145.509C77.2051 144.318 88.5142 146.699 100.237 154.098C76.3283 171.87 77.0698 214.556 70.0477 219.241C63.0255 223.926 46.1285 216.67 42.0817 210.271Z" fill="#6F5F5A"/>
<path d="M126.64 53.5893C116.601 36.6972 118.918 42.1529 111.196 30.0871C100.385 13.195 89.5746 -3.69698 58.6868 0.709659C28.5712 4.38178 28.5712 34.4938 27.799 41.1037C27.799 57.2415 27.799 66.0746 29.3434 76.3569C24.7102 88.8423 24.7102 94.8219 24.7102 105.734C24.7102 137.373 55.4796 163.021 93.4355 163.021C131.392 163.021 162.161 137.373 162.161 105.734C162.161 82.8738 138.995 60.9336 126.64 53.5893Z" fill="#7B9B94"/>
<ellipse rx="14.3024" ry="16.9706" transform="matrix(0.958859 -0.283883 0.311051 0.950393 135.217 46.5446)" fill="#7B9B94"/>
<ellipse rx="14.3341" ry="16.9296" transform="matrix(0.980686 -0.195591 0.215305 0.976547 17.7023 72.1906)" fill="#7B9B94"/>
<path d="M61.7893 64.3581C62.0348 65.4829 62.0224 66.6473 61.7526 67.7846C61.4828 68.9219 60.961 70.01 60.2169 70.9866C59.4729 71.9632 58.5211 72.8093 57.4161 73.4765C56.311 74.1438 55.0743 74.6191 53.7765 74.8754C52.4787 75.1317 51.1452 75.1639 49.8522 74.9702C48.5592 74.7765 47.332 74.3607 46.2407 73.7465C45.1494 73.1323 44.2153 72.3317 43.4918 71.3906C42.7683 70.4494 42.2695 69.386 42.0239 68.2611L51.9066 66.3096L61.7893 64.3581Z" fill="#D4F7EF"/>
<path d="M106.524 52.9308C106.867 54.0065 106.968 55.14 106.824 56.2665C106.679 57.3929 106.291 58.4904 105.682 59.4961C105.073 60.5018 104.254 61.3961 103.273 62.1279C102.291 62.8597 101.166 63.4147 99.9625 63.7613C98.7585 64.1078 97.4989 64.239 96.2556 64.1475C95.0122 64.056 93.8096 63.7435 92.7162 63.2279C91.6228 62.7122 90.6602 62.0035 89.8832 61.1423C89.1063 60.281 88.5302 59.2841 88.1879 58.2083L97.3561 55.5695L106.524 52.9308Z" fill="#D4F7EF"/>
<ellipse rx="4.4141" ry="2.31303" transform="matrix(-0.188174 0.982136 -0.98531 -0.170772 72.5864 84.4354)" fill="#516460"/>
<ellipse rx="6.50307" ry="2.93635" transform="matrix(0.790524 0.612431 -0.650473 0.759529 88.0301 80.0337)" fill="#516460"/>
<path d="M93.4048 117.129C83.7533 122.101 79.3941 128.629 74.9029 132.174C69.4975 135.112 65.6365 135.846 60.3489 130.43C53.0606 110.926 69.3992 97.3611 81.0805 93.2486C92.7617 89.1361 116.863 86.4793 129.512 99.3878C131.919 102.767 133.02 104.033 134.238 109.042C134.538 123.682 108.476 111.823 93.4048 117.129Z" fill="#516460"/>
<ellipse rx="5.43448" ry="2.8263" transform="matrix(-0.930998 -0.365025 0.39768 -0.917524 80.3142 8.95848)" fill="#6D8983"/>
<ellipse rx="2.38834" ry="2.17569" transform="matrix(-0.930998 -0.365025 0.39768 -0.917524 89.5745 14.5939)" fill="#6D8983"/>
<ellipse rx="7.41194" ry="4.864" transform="matrix(-0.793805 -0.608173 0.646295 -0.763088 49.6596 138.722)" fill="#6C8983"/>
<ellipse rx="2.76198" ry="3.16227" transform="matrix(-0.995252 -0.0973351 0.107487 -0.994206 60.2312 146.8)" fill="#6C8983"/>
<rect width="12.3492" height="13.2269" rx="2" transform="matrix(0.99543 0.095494 -0.105458 0.994424 101.78 89.5764)" fill="white"/>
<rect width="10.1423" height="11.2527" rx="2" transform="matrix(0.734618 -0.678481 0.71441 0.699727 67.8416 124.35)" fill="white"/>
<path d="M129 137.5C129 131.533 125.734 125.81 119.92 121.59C114.107 117.371 106.222 115 98 115C89.7783 115 81.8933 117.371 76.0797 121.59C70.2661 125.81 67 131.533 67 137.5L98 137.5H129Z" fill="#FDA409"/>
<rect x="128" y="126.143" width="67.8297" height="3.75997" transform="rotate(-14.6408 128 126.143)" fill="#BFBBBB"/>
<path d="M134.999 124.381C135.015 126.153 134.681 127.912 134.017 129.556C133.354 131.2 132.372 132.697 131.13 133.961C129.887 135.226 128.408 136.233 126.776 136.926C125.144 137.619 123.392 137.984 121.619 137.999C119.846 138.015 118.088 137.682 116.444 137.018C114.8 136.354 113.303 135.372 112.039 134.13C110.774 132.888 109.767 131.408 109.074 129.776C108.381 128.144 108.016 126.392 108 124.619L121.5 124.5L134.999 124.381Z" fill="#BFBBBB"/>
<ellipse rx="13.9088" ry="17.4636" transform="matrix(0.608773 0.793345 -0.821485 0.57023 148.813 125.993)" fill="#7B9B94"/>
<rect x="82" y="148" width="32" height="32" fill="#BFBBBB"/>
<path d="M140 130C140 135.516 138.914 140.977 136.803 146.073C134.692 151.168 131.599 155.798 127.698 159.698C123.798 163.599 119.168 166.692 114.073 168.803C108.977 170.914 103.516 172 98 172C92.4845 172 87.023 170.914 81.9273 168.803C76.8316 166.692 72.2016 163.599 68.3015 159.698C64.4015 155.798 61.3078 151.168 59.1971 146.073C57.0864 140.977 56 135.516 56 130L98 130H140Z" fill="#D9D9D9"/>
<ellipse rx="14.3304" ry="16.9344" transform="matrix(0.97814 0.207948 -0.228783 0.973478 92.8913 169.465)" fill="#7B9B94"/>
<path d="M96.9788 184.646C95.671 192.062 83.9394 209.231 71.9395 221.731C59.9396 234.231 39.9389 231.73 41.7153 210.852C43.4916 189.974 58.9013 180.503 69.6648 174.047C80.4283 167.592 98.2867 177.23 96.9788 184.646Z" fill="#6F5F5A"/>
</svg>
