<svg width="98" height="75" viewBox="0 0 98 75" fill="none" xmlns="http://www.w3.org/2000/svg">
<path d="M79.8205 31C79.8205 35.8589 78.8247 40.6702 76.8899 45.1593C74.9551 49.6483 72.1192 53.7272 68.5441 57.163C64.9691 60.5987 60.7248 63.3241 56.0538 65.1835C51.3828 67.043 46.3764 68 41.3205 68C36.2646 68 31.2582 67.043 26.5872 65.1835C21.9162 63.3241 17.6719 60.5987 14.0969 57.1629C10.5219 53.7272 7.68598 49.6483 5.75118 45.1593C3.81637 40.6702 2.82054 35.8589 2.82054 31H79.8205Z" fill="#FFEBB7"/>
<path d="M77.8205 28.7485C80.0296 28.7485 81.841 30.5438 81.6233 32.7422C80.7111 41.951 76.6649 50.6093 70.1048 57.2107C62.6033 64.7593 52.4292 69.0001 41.8205 69.0001C31.2118 69.0001 21.0377 64.7593 13.5362 57.2107C6.97613 50.6093 2.92994 41.951 2.01779 32.7422C1.80003 30.5438 3.6114 28.7485 5.82054 28.7485H7.62477C9.83391 28.7485 11.5978 30.5471 11.8859 32.7374C12.7525 39.3239 15.7486 45.4845 20.4689 50.2345C26.1317 55.9329 33.8121 59.1342 41.8205 59.1342C49.8289 59.1342 58.3799 55.9329 64.0427 50.2345C68.7618 45.4857 71.153 39.327 71.8189 32.7423C72.0412 30.5443 73.8071 28.7485 76.0163 28.7485H77.8205Z" fill="#E85050"/>
<path d="M32.9089 33.5588C33.3507 33.1868 34.7596 32.3391 34.7596 32.3391C34.555 34.4676 33.7148 38.3353 32.2197 39.1051C30.7246 39.8749 28.9168 38.0489 29.8111 36.5434C30.7054 35.038 32.4671 33.9308 32.9089 33.5588Z" fill="#383333"/>
<path d="M51.234 33.5588C50.7922 33.1868 49.3834 32.3391 49.3834 32.3391C49.588 34.4676 50.4282 38.3353 51.9233 39.1051C53.4184 39.8749 55.2261 38.0489 54.3318 36.5434C53.4376 35.038 51.6758 33.9308 51.234 33.5588Z" fill="#383333"/>
<path d="M42.6499 35.1324C42.3983 34.5947 41.4611 33.1863 41.4611 33.1863C40.7986 35.2054 40.0187 39.0875 41.0649 40.4647C42.1112 41.8418 44.4741 41.0125 44.2644 39.2432C44.0547 37.4739 42.9015 35.6701 42.6499 35.1324Z" fill="#383333"/>
<path d="M95.8205 26C95.8205 30.8589 94.8247 35.6702 92.8899 40.1593C90.9551 44.6483 88.1192 48.7272 84.5441 52.163C80.9691 55.5987 76.7248 58.3241 72.0538 60.1835C67.3828 62.043 62.3764 63 57.3205 63C52.2646 63 47.2582 62.043 42.5872 60.1835C37.9162 58.3241 33.6719 55.5987 30.0969 52.1629C26.5218 48.7272 23.6859 44.6483 21.7511 40.1593C19.8163 35.6702 18.8205 30.8589 18.8205 26H95.8205Z" fill="#FFEBB7"/>
<path d="M93.8205 23.7485C96.0296 23.7485 97.8411 25.5438 97.6234 27.7422C96.7112 36.951 92.665 45.6093 86.1049 52.2107C78.6034 59.7593 68.4292 64.0001 57.8205 64.0001C47.2118 64.0001 37.0377 59.7593 29.5362 52.2107C22.9761 45.6093 18.9299 36.951 18.0177 27.7422C17.8 25.5438 19.6114 23.7485 21.8205 23.7485H23.6247C25.8339 23.7485 27.5977 25.5471 27.8859 27.7374C28.7525 34.3239 31.7486 40.4845 36.4689 45.2345C42.1317 50.9329 49.8121 54.1342 57.8205 54.1342C65.8289 54.1342 74.3799 50.9329 80.0427 45.2345C84.7618 40.4857 87.153 34.327 87.8189 27.7423C88.0412 25.5443 89.8071 23.7485 92.0163 23.7485H93.8205Z" fill="#E85050"/>
<path d="M67.234 28.5588C66.7922 28.1868 65.3834 27.3391 65.3834 27.3391C65.588 29.4676 66.4282 33.3353 67.9233 34.1051C69.4184 34.8749 71.2261 33.0489 70.3318 31.5434C69.4376 30.038 67.6758 28.9308 67.234 28.5588Z" fill="#383333"/>
<path d="M58.6499 30.1324C58.3983 29.5947 57.4611 28.1863 57.4611 28.1863C56.7986 30.2054 56.0187 34.0875 57.0649 35.4647C58.1112 36.8418 60.4741 36.0125 60.2644 34.2432C60.0547 32.4739 58.9015 30.6701 58.6499 30.1324Z" fill="#383333"/>
<path d="M54.8205 26.5H32.3205C30.3205 41.3 38.4872 44.6667 42.8205 44.5C44.3205 44.5 46.8205 45 47.8205 40C47.8205 33.5 56.3205 33.5 54.8205 26.5Z" fill="#A2614D"/>
<path d="M48.9089 28.5588C49.3507 28.1868 50.7596 27.3391 50.7596 27.3391C50.555 29.4676 49.7148 33.3353 48.2197 34.1051C46.7246 34.8749 44.9168 33.0489 45.8111 31.5434C46.7054 30.038 48.4671 28.9308 48.9089 28.5588Z" fill="#383333"/>
<g clip-path="url(#clip0_306_1371)">
<g clip-path="url(#clip1_306_1371)">
<g clip-path="url(#clip2_306_1371)">
<path d="M122.232 29.6672C122.232 41.2843 119.821 52.7877 115.137 63.5207C110.453 74.2535 103.587 84.0057 94.9314 92.2204C86.2761 100.435 76.0004 106.951 64.6917 111.397C53.3829 115.843 41.2622 118.131 29.0216 118.131C16.781 118.131 4.66023 115.843 -6.64851 111.397C-17.9572 106.951 -28.2329 100.435 -36.8882 92.2202C-45.5436 84.0057 -52.4095 74.2535 -57.0937 63.5207C-61.778 52.7877 -64.189 41.2843 -64.189 29.6672H122.232Z" fill="#FFEBB7"/>
<path d="M117.39 24.2842C122.738 24.2842 127.124 28.5765 126.597 33.8327C124.388 55.85 114.592 76.5512 98.7099 92.3345C80.5484 110.382 55.9164 120.522 30.2321 120.522C4.54791 120.522 -20.0841 110.382 -38.2457 92.3345C-54.1281 76.5512 -63.9241 55.85 -66.1325 33.8327C-66.6597 28.5765 -62.2742 24.2842 -56.9258 24.2842H-52.5577C-47.2092 24.2842 -42.9388 28.5844 -42.2411 33.8212C-40.143 49.5689 -32.8893 64.2983 -21.4612 75.6551C-7.75128 89.2794 10.8434 96.9334 30.2321 96.9334C49.6209 96.9334 70.3233 89.2794 84.0332 75.6551C95.4584 64.3011 101.248 49.5763 102.86 33.8329C103.398 28.5777 107.673 24.2842 113.022 24.2842H117.39Z" fill="#E85050"/>
<path d="M8.65668 35.785C9.72631 34.8956 13.1373 32.8689 13.1373 32.8689C12.642 37.9579 10.6078 47.2052 6.9881 49.0457C3.36838 50.8862 -1.0084 46.5204 1.15675 42.9209C3.3219 39.3216 7.58706 36.6744 8.65668 35.785Z" fill="#383333"/>
<path d="M53.0226 35.785C51.953 34.8956 48.5422 32.8689 48.5422 32.8689C49.0376 37.9579 51.0717 47.2052 54.6915 49.0457C58.3112 50.8862 62.6877 46.5204 60.5226 42.9209C58.3577 39.3216 54.0923 36.6744 53.0226 35.785Z" fill="#383333"/>
<path d="M32.2401 39.5473C31.631 38.2618 29.362 34.8944 29.362 34.8944C27.758 39.7219 25.8698 49.0036 28.4027 52.2964C30.9359 55.5889 36.6566 53.6061 36.1489 49.3759C35.6412 45.1457 32.8492 40.8329 32.2401 39.5473Z" fill="#383333"/>
<path d="M160.969 17.7126C160.969 29.3298 158.558 40.8331 153.874 51.5661C149.19 62.2989 142.324 72.0511 133.668 80.2658C125.013 88.4802 114.737 94.9964 103.428 99.4421C92.1197 103.888 79.999 106.176 67.7584 106.176C55.5178 106.176 43.397 103.888 32.0883 99.4421C20.7795 94.9964 10.5039 88.4802 1.84861 80.2656C-6.8069 72.0511 -13.6728 62.2989 -18.357 51.5661C-23.0413 40.8331 -25.4521 29.3298 -25.4521 17.7126H160.969Z" fill="#FFEBB7"/>
<path d="M156.127 12.3296C161.475 12.3296 165.861 16.622 165.334 21.8781C163.125 43.8954 153.329 64.5966 137.447 80.3799C119.285 98.4279 94.6532 108.567 68.969 108.567C43.2848 108.567 18.6527 98.4279 0.491213 80.3799C-15.3911 64.5966 -25.1872 43.8954 -27.3957 21.8781C-27.9227 16.622 -23.5373 12.3296 -18.1889 12.3296H-13.8208C-8.47225 12.3296 -4.202 16.6299 -3.50425 21.8667C-1.40617 37.6143 5.84755 52.3437 17.2756 63.7005C30.9856 77.3248 49.5802 84.9788 68.969 84.9788C88.3577 84.9788 109.06 77.3248 122.77 63.7005C134.195 52.3466 139.985 37.6217 141.597 21.8784C142.135 16.6232 146.41 12.3296 151.759 12.3296H156.127Z" fill="#E85050"/>
<path d="M61.7058 18.9082H7.23216C2.39005 54.2935 22.1621 62.343 32.6532 61.9444C36.2848 61.9444 42.3374 63.1399 44.7585 51.1853C44.7585 35.6445 65.3374 35.6445 61.7058 18.9082Z" fill="#A2614D"/>
<path d="M47.3935 23.8305C48.4631 22.9411 51.8741 20.9143 51.8741 20.9143C51.3788 26.0033 49.3446 35.2506 45.7249 37.0911C42.1052 38.9316 37.7284 34.5658 39.8936 30.9664C42.0587 27.3671 46.3239 24.7199 47.3935 23.8305Z" fill="#383333"/>
</g>
</g>
</g>
<circle cx="32.5" cy="32.5" r="31.5" stroke="black" stroke-width="2"/>
<line x1="56.4142" y1="54" x2="76" y2="73.5858" stroke="black" stroke-width="2" stroke-linecap="round"/>
<defs>
<clipPath id="clip0_306_1371">
<rect width="64" height="64" rx="32" fill="white"/>
</clipPath>
<clipPath id="clip1_306_1371">
<rect width="92" height="197" fill="white" transform="translate(-21.8206 19)"/>
</clipPath>
<clipPath id="clip2_306_1371">
<rect width="232.421" height="109.982" fill="white" transform="translate(-66.61 10.5399)"/>
</clipPath>
</defs>
</svg>
