<svg width="80" height="80" viewBox="0 0 80 80" fill="none" xmlns="http://www.w3.org/2000/svg">
<path d="M26.951 56.8477C20.796 44.849 23.2206 28.669 25.739 21.9747C28.2574 15.2804 33.5954 4.28828 39.5378 1.28307C44.5637 -1.25866 48.8431 -0.183985 47.7467 5.94772C46.6502 12.0794 47.4954 4.13238 43.7835 25.3219C40.0716 46.5114 54.8735 59.7181 66.3437 63.9057C77.8138 68.0933 74.1401 77.316 64.2919 78.3747C47.8783 80.1392 35.1578 70.6109 26.951 56.8477Z" fill="#FFEFCB"/>
<path d="M24.2613 44.6254C17.1356 43.6821 3.77012 44.6254 0 55.002C10.6035 51.8203 17.6838 49.8137 24.2613 55.002C30.8389 60.1902 30.2908 63.0202 36.3202 69.1518C42.3497 75.2834 51.1197 79.0567 60.9861 80C68.6599 80 73.045 78.5851 74.1412 75.2834C75.2375 71.9818 74.6894 71.0385 73.045 68.2085C71.4006 65.3785 53.3123 55.002 53.3123 55.002C57.1492 43.6821 67.2624 40.4182 76.5807 42.7765C85.8989 45.1348 74.1412 35.2754 65.5059 35.2754C58.2013 35.86 53.9599 37.0792 50.5716 39.4371C44.5914 43.5988 43.4459 49.342 43.4459 55.002C40.7053 50.2853 31.387 45.5687 24.2613 44.6254Z" fill="#FFDB59"/>
</svg>
