<svg width="60" height="80" viewBox="0 0 60 80" fill="none" xmlns="http://www.w3.org/2000/svg">
<rect y="43.3334" width="58.3333" height="36.6667" rx="5" fill="#FFDC64"/>
<rect x="8.33337" width="41.6667" height="6.66667" rx="3" fill="#826469"/>
<path d="M0 18.3334C0 15.572 2.23858 13.3334 5 13.3334H53.3333C56.0948 13.3334 58.3333 15.572 58.3333 18.3334V63.3334H0V18.3334Z" fill="#FDF9EC"/>
<rect x="11.6666" y="33.3334" width="38.3333" height="26.6667" rx="4" fill="#6E555E"/>
<line x1="27.3737" y1="38.3334" x2="30" y2="40.9596" stroke="black" stroke-linecap="round"/>
<line x1="33.2918" y1="41.3777" x2="35.9608" y2="38.375" stroke="black" stroke-linecap="round"/>
<circle cx="31.6667" cy="43.3333" r="3.33333" fill="#9C787E"/>
<line x1="25.3" y1="51.2334" x2="29.5667" y2="48.0334" stroke="black" stroke-width="3" stroke-linecap="round"/>
<line x1="1.5" y1="-1.5" x2="6.83333" y2="-1.5" transform="matrix(0.8 0.6 0.6 -0.8 35 45)" stroke="black" stroke-width="3" stroke-linecap="round"/>
<ellipse cx="31.6667" cy="50.8333" rx="3.33333" ry="5.83333" fill="#FFDC64"/>
<line x1="28.3334" y1="49.5" x2="35" y2="49.5" stroke="black"/>
<line x1="28.3334" y1="52.8334" x2="35" y2="52.8334" stroke="black"/>
<rect x="0.5" y="12.1666" width="59" height="67.3333" rx="4.5" stroke="black"/>
<path d="M21.5064 14.5682C19.5769 18.9323 14.3536 20.8522 9.83978 18.8565C5.32597 16.8608 7.91021 12.6972 9.83972 8.33317C11.7692 3.9691 12.3133 1.05712 16.8272 3.05284C21.341 5.04855 23.436 10.2042 21.5064 14.5682Z" fill="#826469"/>
<path d="M49.2541 10.8334C47.393 6.62407 46.6647 1.48744 42.5145 3.32238C38.3643 5.15732 36.5086 10.0571 38.3697 14.2664C40.2308 18.4757 45.1039 20.4005 49.2541 18.5656C53.4042 16.7307 51.1151 15.0427 49.2541 10.8334Z" fill="#826469"/>
<ellipse cx="29.5263" cy="10.1504" rx="10.3759" ry="8.33333" transform="rotate(2.50554 29.5263 10.1504)" fill="#826469"/>
</svg>
